<svg width="595.276" xmlns="http://www.w3.org/2000/svg" height="841.89">
<defs>
<linearGradient gradientTransform="matrix(0.9997 -0.0238 0.0238 0.9997 -18.6935 5.8721)" id="path74_1_" y1="0.197202" x1="0.486062" y2="0.752754" x2="0.530079">
<stop offset="0.0056" style="stop-color:#8cc63f"/>
<stop offset="0.0762" style="stop-color:#afd136"/>
<stop offset="0.161" style="stop-color:#cedc28"/>
<stop offset="0.248" style="stop-color:#e6e515"/>
<stop offset="0.3368" style="stop-color:#f7ec00"/>
<stop offset="0.4286" style="stop-color:#fff000"/>
<stop offset="0.5281" style="stop-color:#fff200"/>
<stop offset="0.816" style="stop-color:#dfe21d"/>
<stop offset="1" style="stop-color:#cadb2a"/>
</linearGradient>
<linearGradient gradientTransform="matrix(1 0 0 1 -0.0176 -1.6514)" id="path142_1_" y1="0.010431" x1="0.42977" y2="0.949652" x2="0.549356">
<stop offset="0" style="stop-color:#f9b49b"/>
<stop offset="0.2246" style="stop-color:#fab69e"/>
<stop offset="0.4321" style="stop-color:#fbc0aa"/>
<stop offset="0.6329" style="stop-color:#fccebc"/>
<stop offset="0.8283" style="stop-color:#fde3d7"/>
<stop offset="1" style="stop-color:#fff"/>
</linearGradient>
<linearGradient gradientTransform="matrix(1 0 0 1 -0.0176 -1.6514)" id="path113_1_" y1="0.499993" x1="0" y2="0.499993" x2="0.999985">
<stop offset="0.0056" style="stop-color:#006e3a"/>
<stop offset="0.1944" style="stop-color:#006e3b"/>
<stop offset="0.3271" style="stop-color:#006c3e"/>
<stop offset="0.4426" style="stop-color:#006a44"/>
<stop offset="0.5484" style="stop-color:#00664d"/>
<stop offset="0.6475" style="stop-color:#006159"/>
<stop offset="0.7416" style="stop-color:#005b66"/>
<stop offset="0.8319" style="stop-color:#005173"/>
<stop offset="0.9167" style="stop-color:#1d4481"/>
<stop offset="0.9986" style="stop-color:#2e3192"/>
<stop offset="1" style="stop-color:#2e3192"/>
</linearGradient>
<linearGradient gradientTransform="matrix(1 0 0 1 -0.0176 -1.6514)" id="path43_1_" y1="0.038499" x1="0.885269" y2="1.03221" x2="0.227218">
<stop offset="0" style="stop-color:#6c9d31"/>
<stop offset="0.2906" style="stop-color:#6c9c32"/>
<stop offset="0.4226" style="stop-color:#6b9a36"/>
<stop offset="0.5227" style="stop-color:#67963e"/>
<stop offset="0.6066" style="stop-color:#62914a"/>
<stop offset="0.6803" style="stop-color:#5c8b59"/>
<stop offset="0.747" style="stop-color:#528368"/>
<stop offset="0.8084" style="stop-color:#467977"/>
<stop offset="0.8656" style="stop-color:#356d87"/>
<stop offset="0.9173" style="stop-color:#1c6095"/>
<stop offset="0.9607" style="stop-color:#0054a6"/>
<stop offset="0.9696" style="stop-color:#2e4ba0"/>
<stop offset="0.9893" style="stop-color:#5a3795"/>
<stop offset="1" style="stop-color:#662d91"/>
</linearGradient>
<linearGradient gradientTransform="matrix(1 0 0 1 -0.0176 -1.6514)" id="path10_1_" y1="0.080282" x1="0.573094" y2="0.863137" x2="0.315005">
<stop offset="0.0056" style="stop-color:#93d9f8"/>
<stop offset="1" style="stop-color:#fff"/>
</linearGradient>
<linearGradient gradientTransform="matrix(0.9941 0.1081 -0.1081 0.9941 71.6302 -29.7397)" id="path191_1_" y1="0.913383" x1="0.762311" y2="-0.020465" x2="0.147372" transform="translate(-2,0) translate(-19,0) ">
<stop offset="0" style="stop-color:#f26522"/>
<stop offset="0.2246" style="stop-color:#ca7f25"/>
<stop offset="0.49" style="stop-color:#a59029"/>
<stop offset="0.7172" style="stop-color:#87982d"/>
<stop offset="0.8945" style="stop-color:#749b2f"/>
<stop offset="1" style="stop-color:#6c9d31"/>
</linearGradient>
<marker orient="auto" se_type="mcircle" refX="50" markerHeight="5" viewBox="0 0 100 100" refY="50" markerWidth="5" markerUnits="strokeWidth" id="se_marker_end_line727">
<circle cx="50" cy="50" style="stroke:#000;stroke-width:10" r="30"/>
</marker>
<marker orient="auto" se_type="mcircle" refX="50" markerHeight="5" viewBox="0 0 100 100" refY="50" markerWidth="5" markerUnits="strokeWidth" id="se_marker_end_line723">
<circle cx="50" cy="50" style="stroke:#000;stroke-width:10" r="30"/>
</marker>
<marker orient="auto" se_type="mcircle" refX="50" markerHeight="5" viewBox="0 0 100 100" refY="50" markerWidth="5" markerUnits="strokeWidth" id="se_marker_end_svg_43">
<circle cx="50" cy="50" style="stroke:#000;stroke-width:10" r="30"/>
</marker>
<marker orient="auto" se_type="mcircle" refX="50" markerHeight="5" viewBox="0 0 100 100" refY="50" markerWidth="5" markerUnits="strokeWidth" id="se_marker_end_svg_40">
<circle cx="50" cy="50" style="stroke:#000;stroke-width:10" r="30"/>
</marker>
<marker orient="auto" se_type="mcircle" refX="50" markerHeight="5" viewBox="0 0 100 100" refY="50" markerWidth="5" markerUnits="strokeWidth" id="se_marker_end_svg_41">
<circle cx="50" cy="50" style="stroke:#000;stroke-width:10" r="30"/>
</marker>
</defs>
<g>
<path style="fill:url(#path10_1_)" id="path10" d="m 284.374,275.569 c -1.12,1.74301 -2.66199,3.005 -4.83099,2.728 -5.46301,-0.696991 -6.66501,-6.772 -7.608,-11.188 -2.26599,-10.584 -2.04098,-22.963 0.683014,-33.352 0.961975,-3.66701 1.44699,-11.364 5.99197,-12.63 3.25702,-0.903992 5.21701,2.856 7.43402,4.522 2.92899,2.198 5.64499,3.994 9.341,4.61099 -1.31302,2.24301 -3.28101,2.617 -4.797,4.524 -1.39603,1.759 -1.78,4.677 -2.18903,6.80501 -0.825989,4.287 -0.694,8.72 -1.52799,12.988 -1.009,5.15701 1.21799,10.494 -0.265991,15.586 -0.47702,1.629 -1.16,3.73801 -2.23102,5.40601 z "/>
<g id="g12">
<path style="fill:url(#path43_1_);stroke:#6c5635;stroke-width:.6" id="path43" d="m 284.905,758.696 c -6,10.069 -5.44299,17.319 -4.01599,28.139 3.383,-0.563049 3.34198,7.71698 6.20898,7.58997 1.77801,9.28503 -3.573,12.213 -2.991,21.388 0.09201,1.43402 11.279,24.905 8.18201,24.022 2.298,0.653992 3.94699,0.682007 6.241,0.003967 1.91199,-10.227 7.37302,-11.072 9.15799,-21.02 0.364014,-2.02698 -1.79599,-24.752 -7.11398,-21.043 16.063,-11.199 6.086,-17.41 3.08301,-29.865 12.165,8.12299 20.3,12.688 36.447,10.701 27.018,-3.328 46.106,-5.771 58.416,-31.894 1.586,-3.362 2.771,-7.00403 4.97101,-10.041 2.574,-3.55701 6.491,-5.84003 7.91602,-10.219 0.866974,-2.66803 0.580994,-4.86902 2.07999,-7.133 0.812012,-1.22302 2.45099,-1.76898 3.40201,-3.16199 3.69,-5.414 -0.610992,-9.13904 0.497986,-14.438 0.964996,-4.59998 6.18802,-6.59198 6.31702,-12.801 0.065979,-3.20099 -2.34302,-6.68799 -1.43601,-9.85999 0.761993,-2.66003 3.72699,-4.98804 4.883,-7.77905 1.63101,-3.93897 1.90799,-7.62299 0.243988,-11.5099 -0.625,-1.46301 -2.09,-3.37701 -2.40399,-4.85901 -0.303009,-1.42401 0.449005,-2.578 1.004,-4.13104 1.586,-4.43695 1.89002,-9.68799 0.457001,-14.154 -0.901001,-2.80896 -2.01801,-4.33197 -1.207,-7.31299 0.787018,-2.896 2.95102,-5.375 2.767,-8.56397 -0.164001,-2.82202 -2.70499,-5.01605 -3.24399,-7.47101 -0.631012,-2.875 1.64099,-4.52301 2.771,-6.78503 1.048,-2.09198 1.177,-4.71301 0.809998,-6.97797 -0.700989,-4.30102 -4.479,-6.65503 -1.965,-10.948 2.98099,-5.09705 5.91998,-9.70105 2.465,-15.455 -4.086,-6.78503 -5.10101,-6.30798 -4.65799,-13.939 0.304993,-5.237 0.384979,-8.68201 -2.34802,-13.518 -5.72598,-10.129 -18.225,-18.517 -29.019,-11.076 -10.678,7.35901 -8.487,20.871 -5.875,31.891 1.35098,5.68805 1.87299,7.68304 1.164,13.535 -0.100006,0.820007 0.661987,25.767 5.65799,22.465 -3.94501,2.60699 -4.60599,6.83203 -5.30899,11.252 -1.078,6.79999 1.896,7.33899 3.133,12.748 0.753998,3.31 -0.266998,4.13202 -1.06399,8.10699 -1.10501,5.492 1.59,9.75806 1.69299,13.91 0.071991,2.97101 -2.194,5.172 -2.87799,8.56897 -0.947998,4.716 2.09399,6.56403 2.414,10.521 0.174988,2.15002 -3.074,18.686 -3.75302,19.738 -2.32599,3.604 -8.20599,4.104 -10.46,7.54498 -3.07098,4.68799 0.733002,10.625 -1.384,15.41 -1.66901,3.771 -7.65399,3.52997 -9.38699,8.612 -1.487,4.367 0.802002,10.4239 0.747009,15.146 -9.97702,-0.309998 -18.547,7.05096 -20.425,16.76 -0.449982,2.32794 -33.243,-7.23602 -36.481,-7.42004 -11.476,-0.653992 -20.132,5.96002 -25.712,15.323 z "/>
<path style="fill:#537f24" id="path45" d="m 419.94,572.512 c -0.05899,0.567993 -0.104004,1.10699 -0.136993,1.60895 -0.21402,3.35706 -4.93701,7.12103 -1.10901,9.53503 2.46701,1.55902 7.65399,-1.83801 9.52301,-2.97998 1.25598,12.711 -16.813,12.24 -15.508,22.857 0.978973,7.96295 6.29498,4.28296 11.262,2.92999 3.07599,6.72296 -3.33502,6.79901 -5.729,10.887 -2.711,4.63403 -2.815,13.246 4.60699,10.142 -0.040985,-0.09198 0.68399,3.14099 0.696991,3.31702 -1.242,-0.054993 -5.08798,1.52899 -7.737,1.49597 -2.673,3.75403 -4.267,10.392 -3.83099,14.881 0.625,6.453 8.008,8.703 12.174,2.04102 1.039,11.709 -10.781,6.06299 -14.912,13.724 -5.633,10.446 5.56802,14.625 14.174,13.156 -1.772,2.97101 -3.353,4.84399 -6.04102,6.37201 -4.073,2.32001 -2.05899,-2.54498 -5.88199,2.552 -3.98001,5.30701 -4.94101,19.024 5.37,15.076 -2.59799,6.31903 -7.86499,1.68799 -12.435,2.99701 -1.15698,2.94898 -0.68399,6.539 -0.776001,9.88599 4.28302,-2.15198 8.63501,2.26001 13.646,0.317017 -2.521,6.01898 -8.28699,6.48798 -13.377,5.73401 0.876984,0.823975 1.241,2.19098 1.961,3.07001 -3.04001,1.80896 -8.604,11.436 -2.25201,10.375 -0.759003,1.00195 -1.92499,2.854 -2.54898,3.69196 -3.23102,2.05402 -6.81,2.99402 -8.77301,5.63104 -4.11801,-1.70203 -16.528,11.136 -20.787,14.677 7.26398,-5.34302 25.521,-29.57 8.879,-31.357 -0.045013,-0.705017 -0.199005,-1.18603 -0.453003,-1.77106 4.06101,2.50806 10.083,-2.45898 11.669,-6.40796 -3.71503,-2.39801 -6.58102,-7.242 -4.73401,-11.354 4.14398,6.383 8.76999,-0.020996 7.151,-4.99402 0.130005,-0.169983 1.21298,-0.744995 1.203,-0.721008 -2.78,-5.26196 -10.006,-15.496 -5.492,-20.82 2.58701,6.20703 8.824,9.85303 8.521,1.28705 -5.63501,-4.35602 -9.289,-13.25 -6.42099,-19.8521 1.56598,3.01202 3.36099,7.68201 8.20398,7.039 -0.635986,-5.271 4.27301,-10.762 1.90402,-14.844 -0.604004,0.143005 -1.61301,0.395996 -2.27701,0.475037 -3.56799,-4.52502 -10.057,-14.643 -5.10901,-19.703 2.62701,3.35498 4.629,10.646 8.55701,5.94898 1.80798,-2.15997 0.794983,-10.242 -0.584991,-12.387 -7.854,4.89899 -10.656,-10.711 -8.276,-15.648 0.763977,2.15399 3.56699,4.56299 6.02499,2.39801 1.177,-1.03503 -0.264008,-6.836 0.934998,-9.04102 -8.789,-4.77704 -12.777,-12.902 -9.40701,-24.027 -0.134003,-0.120972 1.642,-0.007996 1.60901,0 -0.173004,1.73004 0.716003,3.15204 0.854004,4.66205 8.923,-4.97803 -11.5,-12.074 -1.383,-20.41 0.75,-0.618958 4.17999,-1.23798 6.13901,-2.91797 5.301,-4.54901 3.83398,-14.393 10.477,-17.209 5.01199,-2.125 9.09299,0.791016 10.902,4.92401 2.41199,5.51501 0.207977,16.149 -0.471008,22.756 z "/>
<path style="fill:#8cc63f" id="path47" d="m 401.198,568.725 c -3.46301,9.39404 4.479,25.525 4.79999,35.986 0.469025,15.217 -2.125,31.418 -3.16397,46.664 -2.24103,32.891 -3.23001,65.73 -21.224,93.875 6.07501,-9.06799 13.216,-18.996 16.484,-29.406 2.42001,-7.70697 2.09302,-15.621 3.104,-23.485 1.83899,-14.308 3.97699,-28.729 4.66602,-43.232 0.728973,-15.309 0.755981,-30.873 1.33398,-46.139 0.395996,-10.5 -0.207001,-25.349 -5.367,-34.349 -1.569,0.269043 -0.710999,1.01904 -1.23099,1.888"/>
</g>
<g id="g49">
<path style="fill:#c0272d;stroke:#f26522;stroke-width:.533" id="path51" d="m 201.116,548.941 c 10.426,-3.06397 19.359,-6.97595 28.225,-13.355 12.256,-8.81799 23.993,-20.765 34.55,-31.604 4.10101,-4.21201 8.375,-8.358 14.232,-9.65201 10.972,-2.42297 22.011,-3.90399 32.801,-7.46197 12.274,-4.04901 23.356,-11.367 33.289,-19.511 8.83398,-7.24298 22.922,-25.84 11.504,-36.893 -5.96802,-5.77399 -16.491,-5.19498 -24.224,-4.772 -11.1,0.604004 -22.15,2.55701 -33.281,2.68002 -20.778,0.229004 -40.042,-7.69101 -60.218,-11.183 -17.636,-3.051 -36.142,-0.472992 -50.061,11.176 -15.336,12.836 -22.044,37.527 -22.058,56.888 -0.005005,8.41299 0.988998,17.344 2.96001,25.527 1.72099,7.142 4.94299,14.17 6.13199,21.351 0.951004,5.755 -3.05899,15.527 2.10301,20.003 6.116,5.29804 17.72,-1.33197 24.046,-3.19299 z "/>
<path style="fill:#971b1e" id="path53" d="m 210.493,542.971 c -2.81999,1.05798 -5.66299,2.11902 -8.46199,3.38696 -4.548,2.05402 -10.512,5.02106 -15.592,4.88104 -8.442,-0.231995 -3.328,-10.669 -0.852997,-15.328 1.862,-3.50403 4.981,-6.02704 7.021,-9.35602 2.20601,-3.604 3.67201,-8.01501 4.96001,-12.019 2.45599,-7.62802 3.69099,-15.603 3.771,-23.612 0.06601,-6.685 -0.067993,-13.583 2.54201,-19.849 7.46199,-17.9 34.819,-32.433 53.361,-23.488 1.883,0.90799 4.07101,2.76498 5.608,3.56299 10.641,5.51401 21.795,6.729 34.042,7.047 14.598,0.380005 35.021,0.929016 47.578,-8.01999 3.35901,-2.39401 8.129,-7.979 7.26801,-12.457 2.832,-0.950989 2.80801,-4.698 1.672,-7.06 7.095,4.16101 4.349,14.12 1.66901,20.12 -3.62701,8.12799 -10.32,14.937 -17.326,20.267 -8.729,6.64099 -21.58,11.661 -32.086,14.593 -6.18899,1.72699 -12.524,3.43799 -18.766,4.86899 -5.75998,1.32098 -14.534,2.58798 -19.406,5.729 -5.13898,3.31299 -9.04199,9.875 -13.278,14.244 -9.02901,9.31201 -19.013,19.556 -30.146,26.381 -4.268,2.61304 -8.89201,4.35303 -13.577,6.10803 z "/>
</g>
<path style="fill:url(#path74_1_);stroke:#fff200;stroke-width:.6" id="path74" d="m 298.056,570.118 c 1.01001,-0.665955 1.94299,-1.599 2.79199,-2.72595 1.71201,9.38599 15.685,4.01898 16.923,-2.79102 4.423,4.37201 17.986,4.82696 18.056,-3.72003 5.43301,4.39905 21.893,5.31299 18.026,-5.53699 4.87601,6.47302 8.996,3.84503 8.896,-3.026 5.04001,5.17304 12.125,-1.651 13.652,-6.71997 -1.28601,4.26898 8.319,2.21198 9.63599,1.17096 1.92602,-1.521 1.81302,-3.70996 3.00101,-5.492 0.511993,-0.761963 3.32001,-3.354 3.51102,-4.07495 2.358,-8.87903 -7.836,-12.989 -14.778,-9.23401 0.583008,1.16797 1.41699,1.82196 2.293,2.76996 -4.008,-3.50397 -12.632,1.23004 -14.79,-0.889954 1.20902,1.18799 2.50803,2.81195 3.81302,3.75195 -3.435,-3.396 -10.307,-3.18897 -14.526,-1.72296 1.77301,1.06696 3.29401,2.646 4.76401,3.78497 -4.63501,-3.76898 -10.088,-3.53101 -15.685,-2.28198 1.35797,0.963989 2.91699,2.64801 4.396,3.69898 -3.93802,-4.75098 -10.366,-5.25098 -16.011,-4.448 0.502014,1.73303 1.12701,3.67602 2.08499,5.23004 -3.77298,-6.12604 -14.575,-8.12903 -20.438,-4.45703 1.68899,2.05402 3.48502,4.453 3.29999,7.15503 -4.15097,-8.13904 -13.03,-11.754 -21.434,-7.29303 2.465,2.60999 4.207,6.66901 5.02899,9.93799 -1.465,-5.81799 -7.87097,-10.667 -13.877,-9.896 -2.95801,0.382019 -15.847,3.83801 -11.502,8.51703 -4.827,-2.24902 -10.231,1.29498 -9.651,6.729 0.196014,1.83801 1.29102,3.43298 1.50201,5.31299 0.160004,1.43597 -0.385986,2.38397 -0.475006,3.60297 -0.148987,2.03302 1.013,3.69904 1.93802,5.78601 2.49799,5.63104 10.218,5.44702 14.062,1.13403 -0.083008,0.381958 0.002014,1.00897 -0.031982,1.20398 0.879974,-0.5 1.37299,-1.47302 1.58697,-2.45697 -0.544983,2.51196 5.509,6.422 7.20502,7.29401 2.483,1.27399 4.75299,0.990967 6.73199,-0.313049 z "/>
<g id="g76">
<path style="fill:#2e3192" id="path78" d="m 254.952,493.613 c -2.282,2.362 -6.082,3.539 -9.08899,4.60998 -1.91,0.684998 -5.681,1.271 -6.953,2.95502 -2.68901,3.55798 4.133,0.069977 5.42,-0.473022 5.677,-2.39099 14.224,-4.43198 14.578,4.34201 0.387024,9.54303 0.606018,19.103 1.60101,28.605 0.881989,8.422 4.461,17.496 -2.70001,24.254 -1.37598,1.30096 -5.98099,2.409 -5.96699,4.39697 0.040009,5.08099 9.84901,-4.45099 11.562,-5.05395 8.521,-2.99902 17.92,-1.21002 26.733,-1.75201 1.82001,-0.111023 4.487,-1.15399 6.022,0.031982 1.383,1.06702 1.83002,3.56903 1.254,5.14301 1.479,-0.422974 1.40399,-3.771 1.069,-5.05499 3.534,-1.53003 8.13602,-1.58301 11.962,-1.98102 3.931,-0.408997 9.004,-1.50098 9.237,3.992 1.33701,-1.34198 0.822998,-3.065 0.550995,-4.70398 2.45401,-1.13599 6.61301,-0.442017 9.32101,-0.875 3.10199,-0.494019 6.14398,-1.28601 9.20599,-1.97101 2.004,-0.447998 4.33301,-1.84399 6.379,-1.646 2.57101,0.247009 4.23901,2.48602 6.923,2.94598 0.43399,-1.32898 0.264008,-2.59601 -0.395996,-3.89697 3.98099,0.992981 8,3.08301 11.921,4.38696 -0.682007,-0.966003 -5.04199,-3.073 -5.00699,-3.90997 0.056976,-1.28699 5.26797,-2.37799 6.54898,-2.87799 6.185,-2.41003 11.658,-5.25299 17.357,-8.54901 -5.65299,0.973022 -12.073,2.83002 -17.094,5.66901 -1.703,0.961975 -8.70999,6.00696 -10.008,2.44098 -0.480988,-1.32202 0.294006,-4.367 0.462006,-5.61401 -1.366,3.06903 -2.06,6.35699 -5.20801,7.651 -4.96899,2.04102 -1.336,-3.58997 -3.26099,-5.896 0.290985,4.01703 -1.42502,5.94702 -4.94501,6.854 -2.92801,0.754028 -4.246,1.28302 -6.06299,-1.362 0.629974,3.62402 -3.66901,3.45898 -6.30002,3.85504 -2.15399,0.324951 -12.128,1.16895 -11.626,-3.10004 -0.473999,4.034 -5.116,4.672 -8.36099,5.21802 -2.52298,0.424988 -4.896,0.830994 -7.46799,0.442993 -2.51602,-0.380005 -2.43601,-1.93799 -2.926,-3.992 -0.609009,-2.552 -1.90402,-5.05402 -3.58801,-7.08801 1.00299,1.211 1.40601,4.729 1.93799,6.25201 2.70401,7.75702 -11.505,5.32898 -15.336,5.32898 -3.45499,0 -6.918,0.375 -10.313,0.442017 -1.73001,0.035034 -5.18301,-0.346985 -6.51401,-1.68201 -2.23898,-2.24597 -1.42999,-8.46802 -1.80298,-11.422 -0.559021,-4.42902 -0.70401,-8.92401 -1.729,-13.298 -0.919006,-3.91602 0.243988,-7.94403 -0.201996,-11.893 -1.285,-11.352 -1.56201,-22.789 -1.90402,-34.199 -0.121979,-4.047 0.104004,-8.17801 1.41202,-12.045 0.876984,-2.59 4.48999,-6.07498 1.798,-8.285 -4.02902,2.84302 -4.729,9.01901 -6.13702,13.429 0.494019,-1.54501 -5.83099,-10.57 -8.68599,-10.963 -0.746002,-0.102997 -1.25501,0.386993 -1.34399,1.75201 -0.006012,0.093994 0.001999,0.190002 0.020996,0.292999 0.313004,1.63098 3.741,4.18399 4.718,5.551 4.57599,6.41598 5.06699,10.346 4.207,18.152 -0.277008,2.55298 -0.542007,3.82999 -1.27301,4.59 z "/>
<g style="fill:none;stroke:#00adef;stroke-width:.6">
<path id="path80" d="m 252.307,495.308 c 1.43799,-1.33801 3.31,-2.86603 3.81299,-4.81702 0.617004,-2.383 0.502014,-4.94299 0.485992,-7.38101 -0.021973,-3.42899 -1.05299,-6.76099 -2.89299,-9.646 -0.923996,-1.44898 -2.032,-2.77399 -3.263,-3.97498 -1.188,-1.15802 -2.01599,-2.81302 -3.34599,-3.78101"/>
<path id="path82" d="m 249.007,463.308 c 3.78999,1.79999 6.95399,7.34097 8.48,11.072 -0.549988,-1.34399 0.46701,-2.867 0.959015,-4.035 0.461975,-1.09201 0.728973,-2.26801 1.07999,-3.39899 0.61499,-1.98801 1.37799,-4.98801 3.479,-5.93701"/>
<path id="path84" d="m 264.307,464.01 c -2.01199,2.80798 -2.98199,6.22598 -3.54501,9.59198 -0.806,4.81201 -0.083984,9.802 0.06601,14.63 0.227997,7.22501 0.47699,14.396 0.777985,21.604 0.085022,2.035 0.28302,4.02502 0.300018,6.07397 0.022003,2.78503 0.097992,5.60602 0.221985,8.39703 0.174011,3.896 0.987,7.72101 1.57001,11.563 0.516998,3.40802 0.595001,6.77502 0.807007,10.202 0.187988,3.052 0.022003,5.53796 3.38199,6.87097"/>
<path id="path86" d="m 246.907,500.109 c 2.10901,-0.476013 3.578,-1.39401 5.827,-1.29501 1.25601,0.054993 2.64601,0.244995 3.67201,0.998016 2.97199,2.17398 2.15299,6.508 2.51099,9.668 0.257996,2.26797 -0.100006,4.57901 0.339996,6.77597 0.498016,2.48804 0.122009,5.01904 0.35202,7.53101 0.187988,2.07001 0.394989,4.14301 0.600006,6.21503 0.436981,4.39398 0.911987,8.75598 1.57498,13.113 0.450012,2.96301 0.89801,5.78699 -0.175995,8.66998 -0.829987,2.229 -2.30801,4.24402 -4.06,5.84003 -0.769012,0.698975 -1.68701,1.48199 -2.567,2.01398 -0.979996,0.58905 -2.227,0.752014 -3.07201,1.56799"/>
</g>
</g>
<g id="g88">
<path style="fill:url(#path113_1_);stroke:#00adef;stroke-width:.6" id="path113" d="m 253.007,494.709 c -3.69101,3.97897 -9.782,3.95297 -14.649,5.22498 -5.474,1.43301 -9.88701,4.27502 -14.557,7.36502 -4.302,2.849 -9.42999,7.00397 -9.554,12.572 -0.130997,5.90204 5.49501,7.42804 10.181,5.28705 4.24101,-1.93805 5.96101,-6.06799 7.929,-9.98401 3.701,-7.367 12.617,-16.121 21.452,-16.465"/>
<path style="fill:#00552a" id="path115" d="m 234.952,509.115 c 0.130005,-0.328003 0.255005,-0.645996 0.376007,-0.949005 -5.541,0.09201 -6.88001,8.65799 -11.763,10.664 -0.020996,0.007996 -0.042007,0.015991 -0.063004,0.024963 -2.142,0.854004 -7.013,-0.264954 -7.679,3.03003 -0.509003,2.52301 2.82899,3.711 5.035,3.62299 7.728,-0.310974 11.65,-10.194 14.094,-16.393 z "/>
</g>
<g style="fill:#f26522;stroke:#c0272d;stroke-width:.6" id="g117">
<path style="opacity:.68" id="path119" d="m 222.617,178.695 c 0.228989,0.559998 -1.151,3.129 -1.34601,3.702 -0.768997,2.272 -0.897003,5.33499 -2.017,7.407 -0.707001,1.311 -2.834,2.79199 -3.868,0.987 -0.718994,-1.25 0.061996,-3.481 0.072998,-4.84 0.063004,-7.345 -1.17799,-14.979 -0.184998,-22.336 0.138,-1.02501 -0.766006,-2.727 -0.076004,-3.627 0.19101,-0.25 2.045,-1.061 2.045,-1.054 0.031998,2.14899 -0.682999,10.68 2.86301,10.811 2.882,0.103012 3.37799,-6.013 4.515,-7.73099 2.021,-3.05301 6.52,-5.96201 9.91499,-7.16 0,0 14.477,-5.10901 29.802,-3.40601 0,0 15.61,8.799 17.599,10.785 0,0 4.142,1.14999 3.10199,-1.521 -0.114014,-0.296005 -0.292999,-0.638 -0.546997,-1.03201 -1.08402,-1.68799 -2.01199,-2.991 -2.59701,-4.92999 -0.237,-0.785995 -0.192993,-1.72501 -0.502991,-2.64 -1.25,-3.694 -4.324,-3.653 -7.36301,-4.532 0.158997,-0.160995 0.35202,-0.27301 0.51001,-0.42601 -1.00201,-3.37299 -4.55801,-5.088 -6.97601,-7.30699 -5.737,-5.265 -9.181,-10.828 -16.925,-13.226 -9.323,-2.887 -19.344,-1.992 -27.752,2.815 -6.032,3.44899 -11.39,8.27499 -15.26,14.061 -1.26601,1.89401 -1.479,3.27301 -3.88001,3.18701 -2.33,-0.084 -4.263,-1.30701 -6.754,-1.03601 0.875,-0.095001 3.91299,-6.20599 4.705,-7.135 1.411,-1.655 2.48299,-3.107 3.623,-5.009 2.698,-4.496 5.99899,-8.64 9.66099,-12.387 5.952,-6.09 13.357,-12.057 21.634,-14.583 3.455,-1.055 5.635,0.366005 9.00499,0.793999 4.403,0.559006 8.925,-0.848 13.243,0.486 4.46298,1.38 8.55399,3.03001 13.266,2.735 4.43701,-0.278 6.06601,2.329 8.431,5.93301 1.32901,2.027 2.673,4.238 3.505,6.49599 0.604004,1.641 0.796997,3.57 1.64401,5.116 1.409,2.571 4.92297,4.03401 7.20798,5.80901 2.62399,2.039 4.819,4.148 7.18601,6.47501 4.83899,4.758 7.24802,9.36999 7.31601,16.184 0.05899,5.672 0.350006,11.354 0.569,17.021 0.354004,9.03201 -0.371002,19.431 1.99899,28.234 0.015991,0.050995 0.031006,0.102997 0.049011,0.153 0,0 4.39899,48.96 1.41898,51.94 0,0 9.08301,44.561 6.81302,84.297 0,0 7.09601,65.848 10.218,77.201 0.212006,6.17899 0.748993,12.361 1.43802,18.504 0.615997,5.51099 1.39099,11.011 2.46899,16.451 0.839996,4.23502 1.26599,11.206 4.271,14.505 4.25601,-2.69598 6.84,-7.522 10.61,-10.834 3.78201,-3.32101 7.94202,-5.86603 12.377,-8.08902 13.748,-6.896 39.354,-0.041992 47.29,13.472 8.61798,14.676 1.96399,37.004 -8.293,49.054 -4.92001,5.78003 -11.471,11.65 -17.388,16.352 -7.449,5.91901 -19.375,10.627 -28.537,13.023 -3.81299,0.997986 -7.32999,2.31299 -11.069,3.47498 -8.638,2.68506 -17.558,2.61505 -26.587,2.62604 -5.51999,0.005981 -9.99698,-1.36499 -15.317,-2.39001 -5.21701,-1.00397 -10.583,-1.88898 -15.079,-4.94397 -5.51099,-3.74805 -8.50198,-9.78802 -16.115,-6.15601 -5.60599,2.677 -9.702,8.19501 -11.482,14.06 -1.929,6.35699 0.036987,11.685 1.487,17.819 0.962982,4.07404 3.17801,6.78101 5.60699,9.98602 1.85699,2.448 3.173,3.92401 1.84399,6.98901 -1.48599,3.43097 -4.965,5.763 -8.56299,6.68695 -3.76401,0.969055 -5.98601,-0.993958 -8.44101,-3.65594 -7.271,-7.88501 -9.502,-20.83 -8.65199,-31.186 0.608994,-7.44397 2.17999,-17.28 4.784,-24.308 0.927002,-2.5 1.754,-5.091 2.864,-7.51404 1.62801,-3.55499 4.07201,-6.04895 6.649,-8.86298 4.98201,-5.43799 12.846,-6.37601 19.955,-5.53101 1.926,0.227997 2.12,0.330017 3.76498,-0.79599 3.24902,-2.224 6.46301,-3.379 10.401,-2.57199 4.11502,0.841003 7.87701,2.91299 12.228,2.39899 12.143,-1.431 16.902,-14.86 18.277,-25.32 0.705994,-5.366 1.05701,-11.691 0.011017,-17.032 -1.76801,-9.03799 -6.022,-17.145 -6.13101,-26.625 0,-0.002991 -1.98498,-40.304 -6.24399,-56.766 0,0 -6.24301,-37.182 -6.24301,-61.591 0,0 -6.52799,-61.59 -2.55499,-81.458 l -3.548,-3.548 c 0,0 5.39401,-0.994003 2.69501,-6.67 0,0 -8.51602,-12.772 -13.057,-17.313 -2.09701,-0.300003 -2.29001,-2.61299 -1.94601,-4.26999 0.560028,-2.70401 2.77902,-4.77 3.30502,-7.35001 0.362,-1.78301 -0.177002,-4.143 -0.52002,-5.894 -0.723999,-3.703 -2.22299,-8.763 -5.99698,-10.464 -7.73602,-3.487 -19.648,0.535004 -26.987,3.29401 -2.40199,0.901993 -4.834,2.14499 -6.733,3.89499 -1.77899,1.638 -2.11099,3.994 -4.54199,4.73401 -1.674,0.509995 -7.42,1.648 -8.802,0.72699 0,0 -6.38699,-4.258 -6.38699,-6.38599 l -2.981,-7.237 z "/>
<path id="path121" d="m 402.892,508.105 c -2.245,2.85898 -4.70999,5.79697 -7.23199,8.34 -9.53601,9.61401 -22.977,16.353 -35.522,21.11 -19.766,7.495 -43.174,12.191 -63.998,6.91602 -3.29202,-0.833984 -6.229,-2.61102 -9.026,-4.526 -4.16202,-2.85101 -6.06101,-8.04401 -11.308,-9.51898 -6.418,-1.79303 -13.022,4.521 -15.925,9.56696 -1.79202,3.11401 -1.79901,5.69702 -1.97501,9.117 -0.220001,4.28302 -0.957001,8.349 0.053986,12.622 0.963013,4.073 3.17801,6.78003 5.60699,9.98303 1.85703,2.45099 3.173,3.92596 1.84402,6.99194 -1.48602,3.43005 -4.96402,5.76202 -8.56201,6.68603 -3.76601,0.969971 -5.98599,-0.992981 -8.442,-3.65698 -6.646,-7.20904 -8.899,-17.835 -8.821,-27.377 0.059006,-7.06598 -0.613998,-14.792 1.104,-21.657 2.601,-10.396 7.62199,-21.937 18.22,-26.258 5.297,-2.16 9.50699,-2.07501 15.16,-2.00101 4.02799,0.053009 3.74298,-1.63998 6.55798,-4 1.836,-1.54098 3.90601,-1.32199 6.21402,-1.31799 4.392,0.007996 8.94699,0.604004 13.216,-0.729004 4.01498,-1.25598 8.41199,-2.918 11.07,-6.32498 5.95001,-7.63101 5.70801,-17.324 4.58402,-26.436 -1.267,-10.265 -2.66101,-20.864 -3.14902,-31.244 -0.001984,-0.041992 -1.98798,-40.313 -6.24399,-56.766 0,0 -6.24399,-37.182 -6.24399,-61.591 0,0 -6.52801,-61.591 -2.55502,-81.459 l -3.548,-3.548 c 0,0 5.39301,-0.992996 2.69501,-6.67 0,0 -8.51498,-12.772 -13.056,-17.313 -2.09799,-0.299011 -2.28998,-2.61301 -1.948,-4.27 0.561005,-2.70399 2.78,-4.769 3.30499,-7.35001 0.363007,-1.782 -0.175995,-4.142 -0.518982,-5.89299 -0.722992,-3.703 -2.22299,-8.763 -5.99701,-10.464 -7.737,-3.487 -19.648,0.533997 -26.988,3.293 -2.40001,0.903 -4.83301,2.145 -6.731,3.895 -1.77901,1.63899 -2.11101,3.99399 -4.543,4.735 -1.673,0.509995 -7.41901,1.648 -8.802,0.72699 0,0 -6.38699,-4.258 -6.38699,-6.38699 -0.81601,-1.98401 -1.42801,-5.097 -2.776,-6.73401 -1.643,-1.99199 -1.742,0.700012 -1.99301,2.438 -0.332993,2.308 0.354004,8.08901 -1.278,9.80301 -2.85399,2.99699 -3.43799,-2.98401 -3.60899,-4.466 -0.425995,-3.664 -1.558,-9.627 -5.19,-11.466 -1.03799,-0.524002 4.918,-15.077 7.155,-16.069 0.688995,2.567 0.761002,5.47101 1.022,8.188 0,0 0.994003,1.845 2.839,0 0,0 3.12199,-9.082 12.772,-12.772 0,0 14.476,-5.108 29.802,-3.405 0,0 15.61,8.798 17.598,10.785 0,0 4.142,1.14999 3.10303,-1.52101 -0.115021,-0.294998 -0.292999,-0.636993 -0.547028,-1.032 -1.08398,-1.687 -2.013,-2.991 -2.59799,-4.929 -0.235992,-0.785995 -0.191986,-1.72499 -0.502991,-2.64099 -1.25101,-3.694 -4.323,-3.65201 -7.362,-4.532 0.15799,-0.160004 0.350983,-0.272003 0.51001,-0.425003 -1.00302,-3.37401 -4.55801,-5.089 -6.97803,-7.308 -5.73599,-5.265 -9.17999,-10.827 -16.924,-13.225 -9.32201,-2.888 -19.343,-1.992 -27.752,2.815 -6.03201,3.448 -11.39,8.274 -15.259,14.061 -1.267,1.89299 -1.479,3.272 -3.88101,3.187 -2.32899,-0.084 -4.26199,-1.30701 -6.75299,-1.036 0.873993,-0.095001 3.91299,-6.207 4.705,-7.13501 1.411,-1.655 2.481,-3.107 3.623,-5.009 2.69699,-4.49699 5.998,-8.64099 9.659,-12.387 5.953,-6.091 13.359,-12.058 21.635,-14.583 3.45601,-1.055 5.636,0.364998 9.00501,0.792999 4.403,0.560005 8.926,-0.847 13.243,0.487 4.46399,1.37901 8.55499,3.03 13.267,2.734 4.43597,-0.277 6.06598,2.33 8.42999,5.933 1.32901,2.028 2.673,4.239 3.504,6.497 0.604004,1.64 0.798004,3.57 1.646,5.115 1.40799,2.571 4.922,4.034 7.207,5.81 2.62399,2.03801 4.82001,4.14801 7.18701,6.47501 4.83798,4.757 7.24698,9.36999 7.315,16.184 0.059998,5.67099 0.350983,11.353 0.569977,17.021 0.352997,9.03099 -0.371002,19.431 1.99802,28.233 0.015991,0.052002 0.031982,0.102997 0.049988,0.153 0,0 4.39902,48.961 1.41901,51.94 0,0 9.082,44.562 6.81299,84.298 0,0 7.09601,65.842 10.217,77.2 3.29599,11.991 -0.834991,26.85 5.23999,38.163 5.32001,9.91101 10.407,-3.289 13.987,-6.521 6.43002,-5.806 17.894,-10.114 26.43,-10.898 9.233,-0.848999 19.599,1.19998 27.173,6.75 4.53803,3.32498 8.272,7.93799 10.604,13.284 4.34201,9.96899 3.26602,20.688 1.457,31.335 -1.47,8.66 -3.68799,13.15 -9.00098,20.053 -0.297028,0.375977 -0.591003,0.753998 -0.890015,1.134 z  m -109.387,29.236 c 0.375,0.205994 0.752991,0.403015 1.13599,0.590027 4.54901,2.22998 8.33099,2.95294 13.473,3.01599 8.03098,0.096008 15.643,-0.878052 23.512,-2.375 4.02701,-0.768005 8.21399,-1.24805 12.192,-2.20001 10.037,-2.40301 21.477,-8.22504 30.747,-12.925 14.509,-7.35504 28.335,-18.563 31.123,-35.229 1.63501,-9.771 0.417999,-23.829 -6.02399,-31.659 -2.95001,-3.58701 -6.74301,-6.806 -10.873,-8.94998 -4.46997,-2.32202 -8.34598,-1.72101 -13.013,-2.55002 -9.90503,-1.75998 -23.551,7.216 -30.236,13.388 -1.793,1.65301 -6.23999,9.24402 -8.401,9.55002 -4.33298,0.612 -6.07599,-7.08102 -11.234,-4.18701 -4.05102,2.27499 -3.04501,8.827 -3.737,12.763 -1.97101,11.172 -3.85202,22.542 -14.527,28.263 -5.16202,2.76599 -11.064,1.70001 -16.37,0.208008 -3.81802,-1.074 -10.054,-2.69601 -12.422,1.61499 -6.974,-1.62201 -14.374,-1.10501 -20.777,2.595 -5.216,3.01401 -8.43001,8.02902 -10.681,13.492 -3.989,9.68201 -5.067,19.295 -5.10501,29.712 -0.020996,5.68799 -1.60399,16.73 5.125,19.534 3.313,1.37701 8.97702,-1.36902 9.59702,-4.88098 0.399994,-2.26404 -0.757996,-4.06201 -1.38701,-6.09705 -0.794006,-2.57001 -1.33099,-5.63 -1.48801,-8.32599 -0.185989,-3.18799 0.197998,-6.27301 0.927002,-9.315 1.35301,-5.64996 3.86299,-9.039 8.15501,-12.5 4.16299,-3.35699 11.205,-6.90399 16.351,-3.51697 4.66,3.07098 9.009,7.27899 13.937,9.98499 z "/>
</g>
<rect width="176.384" x="107.307" y="148.909" height="44.4" style="opacity:.5;fill:#bee7fb" id="rect3"/>
<g style="stroke:#000">
<g style="fill:#fff;stroke-width:.6">
<path id="path123" d="m 221.623,178.586 c -2.597,2.151 -3.024,8.27701 -2.651,11.409 0.192001,1.629 1.482,6.96701 3.797,6.91 2.315,-0.056 1.923,-7.903 1.74501,-9.437 -0.41301,-3.55 -2.563,-6.78599 -2.89101,-10.208"/>
<path id="path125" d="m 220.866,153.42 c -3.237,2.688 -3.56599,5.16901 -3.416,9.414 0.042007,1.192 0.324997,7.696 2.47,7.412 1.73601,-0.231003 3.63901,-8.043 3.83,-9.451 0.292007,-2.132 -0.033005,-7.231 -3.263,-6.996"/>
</g>
<path style="fill:#ffc20e;stroke-width:.3" id="path127" d="m 231.176,200.332 c 0.087006,0.156998 0.193008,0.313004 0.326004,0.468994 1.95399,2.27501 5.88901,-0.434998 8.27,0.667999 0.768997,0.356003 1.625,1.18701 2.25499,1.72301 1.65601,1.412 5.431,3.006 6.399,4.937 1.334,2.65401 -2.61999,3.776 -2.02199,6.608 0.884995,4.188 8.36699,4.468 11.639,4.78799 4.466,0.438004 11.401,0.87001 14.286,-3.424 3.15198,-4.69099 1.672,-9.827 -4.116,-10.429 -4.73001,-0.490997 -9.31601,1.584 -14.008,1.30101 -2.942,-0.178009 -9.483,-4.78001 -11.184,-7.15601 2.106,-1.097 7.64601,-3.795 2.83501,-5.349 -4.03101,-1.302 -8.27301,1.287 -12.369,0.229004 -1.183,-0.306 -7.33501,-6.59801 -6.90601,-6.76401 0.121002,-0.046997 0.276001,0.029007 0.375,-0.015991 -0.791,-0.685013 -1.59099,-1.347 -2.17499,-2.22 -1.49701,4.198 2.75,5.69299 5.047,8.13699 2.12799,2.265 0.056992,4.142 1.34799,6.498 z "/>
</g>
<path style="fill:url(#path142_1_)" id="path142" d="m 234.112,191.433 c 2.10899,0.675003 6.8,0.826004 6.927,-2.097 0.121002,-2.771 -4.451,-5.713 -6.56,-6.614 -2.10701,-0.899002 -6.63301,0.153 -8.088,-1.3 -2.18701,-2.183 1.396,-7.101 2.95299,-8.85899 2.94701,-3.328 7.85101,-6.705 12.474,-6.53601 4.75,0.173004 8.71501,0.76001 13.524,-0.477997 5.40501,-1.39 10.787,-1.95 16.105,-0.200989 5.47501,1.801 10.309,6.05499 11.419,11.896 0.544006,2.86 -0.432007,5.70599 0.841003,8.437 1.12,2.405 3.36899,3.854 2.91199,6.817 -0.543976,3.518 -2.78198,6.58099 -4.259,9.74"/>
<path style="fill:#ffc20e;stroke:#000;stroke-width:.3" id="path144" d="m 232.82,178.138 c 0.173996,0.348999 0.68399,0.593002 1.655,0.664001 -0.519012,0.981003 -1.11101,2.04199 -1.711,2.99899 0.244995,0.276001 0.717987,0.59201 1.12599,0.69101 -0.649994,-0.159012 2.133,-2.752 2.442,-2.91101 1.213,-0.623001 2.561,-0.511993 3.77899,-1.05499 4.013,-1.79201 3.68401,-6.524 -1.155,-5.347 -1.30899,0.320999 -7.12599,2.972 -6.13599,4.959 z "/>
<path style="fill:none;stroke:#636466;stroke-width:.6" id="path146" d="m 226.707,188.209 c 1.95799,2.078 5.571,4.52901 8.543,4.5 2.46001,-0.022995 6.73801,-1.548 5.922,-4.632 -0.660004,-2.49899 -4.173,-4.54799 -6.369,-5.487 -2.10599,-0.899002 -6.633,0.153 -8.088,-1.301 -2.187,-2.183 1.396,-7.10001 2.95201,-8.858 2.948,-3.328 7.853,-6.705 12.476,-6.537 4.74899,0.173004 8.715,0.761002 13.523,-0.47699 5.40501,-1.39101 10.787,-1.95001 16.106,-0.201004 5.474,1.8 10.308,6.054 11.418,11.896 0.544983,2.85899 -0.433014,5.70599 0.841003,8.437 2.258,4.84401 4.02799,6.55501 0.888,11.861 -2.457,4.15199 -5.81,5.345 -1.521,10.19 2.49799,2.82399 16.25,16.896 12.43,21.623 -2.02899,2.50699 -7.72,-1.70801 -9.56601,-3.40701 -4.03198,-3.713 -5.853,-9.25 -10.843,-1.71599 -2.51102,3.791 -3.01199,9.601 -3.78799,14.119 -2.05902,11.983 -2.00201,26.582 3.67899,37.891"/>
<path style="fill:#2e3192" id="path148" d="m 251.608,560.808 c 1.532,0.653992 2.16699,2.61102 1.521,4.17102 -2.03301,-0.535034 -2.315,-2.81 -1.22099,-4.47003"/>
<g style="fill:none">
<g style="stroke:#636466">
<g style="stroke-width:1.2">
<path id="path150" d="m 236.108,45.309 c -8.79201,3.514 -16.656,14.931 -17.965,24.053 -1.104,7.7 -0.492004,15.554 -2.43701,23.146 -1.25899,4.92 -5.59399,9.048 -8.79999,13.29 -4.86,6.431 -10.179,12.998 -14.509,19.8 -5.81801,9.14001 -9.319,15.33 2.19699,19.399 3.513,1.24101 8.90701,2.53301 11.01,6.022 1.97299,3.27701 0.138,6.446 -0.299011,9.89801 -0.438995,3.48799 -0.031998,9.159 5.51001,7.101 3.857,-1.43401 3.34799,-8.399 7.291,-8.71001"/>
<path id="path152" d="m 218.108,190.909 c -4.728,1.614 -2.362,-5.50099 -2.791,-8 -0.503006,-2.931 -2.646,-6.38899 -5.60901,-7.51 -11.465,-4.338 -4.52199,9.13699 -4,13.89 0.833008,7.563 -3.536,14.288 -3.209,21.688 0.671005,15.175 20.888,19.939 33.148,21.442 6.3,0.771988 12.641,-1.65801 14.951,5.67 2.114,6.711 -0.696014,12.087 2.31,18.819"/>
<path id="path154" d="m 387.509,49.309 c 4.328,7.073 9.72598,12.135 12.349,20.035 2.82098,8.497 5.57901,17.823 6.341,26.774 1.71799,20.157 -8.198,36.286 -17.602,53.493 -10.628,19.446 -27.234,38.239 -24.503,61.815 6.241,53.874 98.755,70.091 138.447,90.949"/>
</g>
<path style="stroke-width:.6" id="path156" d="m 286.907,262.51 c -0.297028,-3.32602 0.757996,-31.839 7.20999,-29.938 7.74298,2.28 -1.48599,32.803 2.38998,37.138"/>
<path style="stroke-width:1.2" id="path158" d="m 133.504,397.786 c -0.184998,9.10098 3.46001,18.392 10.035,25.202 -3.024,30.332 -4.925,59.403 -1.12801,90.002 2.916,23.504 15.545,40.203 20.476,62.278 4.776,21.392 2.75801,44.188 0.137009,65.729 -4.176,34.325 -12.024,69.345 -12.024,104.003"/>
</g>
<line style="marker-end:url(#se_marker_end_line723);stroke:#000;stroke-width:2.201" id="line723" y1="411.348" x1="459.968" y2="496.806" x2="349.47"/>
<g style="stroke:#636466;stroke-width:1.2">
<path id="path160" d="m 451.026,454.713 c 0,23.38 2.32999,30.025 -2.93201,60.084 -4.73401,27.033 -13.713,54.996 -12.201,82.717 3.27499,60.062 24.371,116.045 21.645,176.511"/>
<path id="path162" d="m 92.1,314.977 c 30.808,-44.83 113.941,-33.838 154.814,-72.008"/>
</g>
</g>
<g style="fill:#f26522" id="g164">
<path style="stroke:#c0272d;stroke-width:.6" id="path166" d="m 369.389,624.677 c 1.15399,-1.68799 3.396,-1.79901 5.49399,-2.16803 3.09,-5.61499 9.16699,-5.87695 13.487,-10.137 6.884,-6.78503 4.88501,-26.295 -5.194,-29.984 -9.01898,-3.30298 -18.576,2.75897 -24.701,8.15399 -5.61099,4.94299 -12.207,11.602 -11.846,19.125 -0.065002,-1.34802 -0.14801,-3.172 -0.561005,-4.39801 -2.052,0.552002 -4.116,2.10101 -6.495,2.22803 2.61301,-0.958984 5.62,-1.95502 7.65201,-3.75 4.10001,-3.62103 6.86099,-10.752 7.06799,-15.84 0.217987,-5.31598 -3.14301,-8.90198 -9.008,-9.93799 -14.806,-2.60999 -22.277,10.642 -35.478,11.021 -5.01602,0.14502 -9.56201,-1.836 -14.521,-1.58801 -6.09302,0.304993 -11.473,3.17999 -16.866,5.42401 -4.65002,1.93603 -11.076,4.78302 -16.194,2.85004 -1.85901,-0.703003 -3.67401,-1.63501 -5.40002,-2.55902 -2.23999,-1.19702 -4.674,-2.65399 -5.424,-5.01202 1.30901,3.07501 -1.98498,5.64502 -5.166,6.13702 -3.49499,0.542969 -7.46699,1.39899 -11.023,0.771973 3.58,5.62305 7.45601,10.957 14.593,13.213 4.646,1.47199 10.057,2.492 14.927,2.51898 2.888,0.014038 5.68899,-0.21698 8.53799,-0.645996 2.15399,-0.322998 4.591,-0.45697 6.23001,-1.854 1.27298,-1.08398 1.668,-2.146 3.521,-2.72095 2.20599,-0.687012 4.72199,-0.83905 7.021,-1.11902 2.505,-0.304016 5.302,-0.285034 7.80701,-0.004028 3.12601,0.354004 5.99399,1.56305 9.078,2.09399 2.40799,0.414001 4.75198,0.631042 7.147,1.19904 1.93298,0.458984 6.48398,2.45502 8.043,0.675964 0.799988,-0.914001 1.13599,-2.12695 2.07199,-3.06 1.09601,-1.08795 2.44699,-2.00995 3.655,-3.01196 3.09299,-2.56299 5.95599,-5.43201 8.35001,-8.48303 1.41098,-1.802 1.18799,-4.74396 0.651001,-6.875 0.617004,1.651 0.25,3.5 1.13898,5.08404 0.373016,-1.08404 4.87003,-1.45904 6.14002,-2.13 -2.535,0.559998 -5.29001,1.52301 -7.134,3.13995 -2.629,2.30505 -4.29901,5.71704 -6.69199,8.24402 -2.16,2.27801 -8.19501,3.97699 -7.75601,7.56903 0.242004,1.992 2.26199,2.32599 4.18601,3.29498 3.08798,1.55597 6.203,3.06397 9.31299,4.59699 3.608,1.78003 12.982,4.38501 16.56,1.547 2.28101,-1.81201 4.48102,-4.60101 6.56101,-6.65198 5.48401,-5.414 12.789,-10.063 16.041,-16.938 -0.514008,2.45697 -3.80902,6.05701 -5.21301,8.58795 2.62799,-1.99597 5.06601,-3.42798 8.58801,-3.87299 -7.711,1.59601 -11.225,5.09601 -16.192,9.98602 -2.396,2.35602 -4.44,4.961 -6.74399,7.34998 -1.242,1.29303 -2.90601,2.375 -3.96402,3.82001 -0.934998,1.27399 -0.731995,2.151 -0.810974,3.58203 -0.126007,2.33795 -1.487,3.76196 -2.28201,5.93396 -1.51901,4.14301 2.41699,6.29102 6.11002,7.758 2.077,0.824036 4.24597,1.492 6.24399,2.46899 0.789001,0.386047 2.19501,0.923035 2.77799,1.50702 1.12802,1.12903 0.479004,2.52399 0.847015,3.862 0.428009,1.56201 1.793,2.953 2.18799,4.60303 0.393005,1.64099 0.427002,3.46899 -0.372986,4.99597 -0.795013,1.51801 -2.633,2.26404 -3.271,3.75403 4.60498,3.50195 15.547,6.237 18.925,0.585999 1.09701,-1.83203 1.207,-4.04901 1.35901,-6.06799 0.204987,-2.729 0.490997,-5.55304 0.270996,-8.30304 -0.161011,-2.00201 -0.575012,-3.99799 -0.826996,-5.98999 -0.186005,-1.46497 -1.14301,-3.90601 -0.765015,-5.30902 0.231995,-0.862976 1.758,-1.91199 2.40701,-2.66596 1.448,-1.68304 2.65399,-3.50403 4.27799,-5.07001 -2.797,2.20099 -6.15198,5.65997 -5.995,9.146 0.171021,3.81097 0.354004,7.68402 0.526001,11.518 0.240021,5.354 -0.833008,10.533 -3.22199,15.463 -2.324,4.80096 -7.685,9.70099 -6.33002,15.228 0.377014,-5.13 1.647,-11.482 5.965,-15.312 -1.30899,1.16003 -5.276,0.976013 -6.931,0.81604 -2.565,-0.248047 -4.69998,-1.10901 -6.86798,-2.29303 -4.05502,-2.211 -6.93899,0.082031 -8.59,3.62701 -1.14801,2.46497 -0.417023,5.63898 -0.240021,8.211 0.184021,2.64099 -0.742004,5.258 0.574005,7.698 1.23599,2.29401 3.41602,4.42102 4.405,6.75299 -0.639984,-1.11102 -1.35699,-2.185 -2.125,-3.255 -0.47699,-0.661011 -2.09799,-3.44202 -2.90299,-3.625 -0.785004,-0.175964 -1.229,0.652039 -1.86301,1.15002 -2.10199,1.64801 -4.483,3.22101 -6.84601,4.55499 1.75201,-2.28003 4.767,-3.69202 6.96802,-5.604 2.06699,-1.797 1.12598,-4.48602 1.146,-6.68799 0.026978,-3.16803 0.743988,-6.80102 1.55899,-9.88104 0.972015,-3.66797 5.785,-4.78094 7.61099,-7.98798 0.813019,-1.42798 1.672,-3.94397 1.44,-5.56097 -0.179993,-1.26001 -3.27399,-4.28705 -3.20398,-4.71503 0.451996,-2.75201 -1.73001,-5.01898 -4.427,-6.06598 -2.87302,-1.117 -5.39502,-0.471008 -7.94601,0.997986 -4.901,2.82001 -7.263,8.08197 -10.031,12.422 -0.786987,1.23401 -1.42798,2.48602 -2.06399,3.77502 -0.501007,1.01801 -2.069,2.836 -1.99301,3.96899 0.050018,0.710999 0.936005,1.62897 1.315,2.25397 0.782013,1.289 1.52502,2.56604 1.992,3.96503 -0.281006,-1.38501 -2.146,-5.80902 -4.10898,-5.64703 2.418,-6.94299 8.32398,-12.83 12.541,-18.938 0.571991,-0.826965 1.147,-1.76801 1.84399,-2.48901 0.320007,-0.33197 1.27899,-0.784973 1.42502,-1.17499 0.460999,-1.245 -1.84302,-1.68597 -2.55701,-2.27197 -0.97702,-0.80304 -1.61499,-2.172 -1.845,-3.30701 -0.65799,-3.27301 2.05701,-4.62799 2.694,-6.41003 1.04001,-2.90594 -0.093994,-5.05395 -3.034,-6.45099 -1.49802,-0.714966 -2.83002,-0.875 -4.341,-0.964966 -0.975006,-0.058044 -1.37201,0.261963 -2.44202,-0.123047 -2.74197,-0.987976 -5.34699,-2.65198 -7.94598,-3.961 -2.742,-1.38098 -5.74701,-2.43695 -8.66901,-3.474 -5.461,-1.93799 -11.01,-3.45496 -16.629,-4.896 -5.522,-1.41596 -10.971,-3.224 -16.814,-2.70697 -3.341,0.292969 -9.91501,1.35602 -10.793,4.93799 -0.343018,1.396 1.63901,2.88 2.03699,4.21399 1.211,4.04901 -2.996,7.17804 -5.70898,9.80902 -2.88901,2.79901 -5.80701,5.65601 -7.36801,9.25598 1.22,1.68402 4.01901,1.75201 6.034,2.06403 3.47101,0.533997 6.45599,2.284 9.67801,3.59601 6.646,2.703 14.466,6.13098 19.522,10.949 1.85599,-3.11298 4.28598,-5.73401 7.46399,-7.95099 -5.79599,6.21301 -9.51801,8.34802 -4.582,16.252 -0.729004,-5.28302 -4.362,-9.48199 -9.26599,-12.223 -7.612,-4.25201 -29.77,-19.104 -34.667,-4.89801 2.88199,-2.883 3.93298,-7.02496 6.49899,-10.188 2.41101,-2.974 5.617,-5.29602 8.11301,-8.22998 2.215,-2.60504 5.31299,-6.578 3.07999,-9.875 -2.31299,-3.42004 -6.60001,-1.83404 -9.92401,-1.35504 -12.111,1.74402 -20.078,-1.21295 -31.135,-4.96899 -9.69501,-3.297 -17.354,-2.44196 -23.477,4.27502 -2.577,2.828 -5.937,4.76599 -6.289,8.13898 -0.313995,3.00604 0.699997,5.96301 -0.076996,9.25604 -0.929001,3.92596 -2.153,7.68799 -2.601,11.691 -0.637009,5.72101 2.20299,10.834 1.944,16.535 -0.177002,3.90301 -2.539,7.992 -1.897,11.858 0.360001,0.10498 0.692993,-0.039001 1.043,0.101013 1.27899,2.17798 -0.128998,4.27197 0.80899,6.80096 1.71001,4.617 6.85101,12.709 12.348,14.418 3.64101,1.13098 11.241,2.24597 14.548,-0.078003 1.689,-1.18799 2.189,-3.70099 2.851,-5.41003 1.118,-2.89301 3.273,-6.84998 6.103,-8.70898 7.069,-4.64899 18.05,-0.229004 24.146,-6.396 0.679016,-0.687988 1.354,-1.461 1.97601,-2.19098 -1.07101,1.36896 -2.55902,2.86896 -3.116,4.44098 0.053986,0.044983 0.104004,0.090027 0.151978,0.138977 2.73001,-0.382996 5.966,-0.68396 8.772,-0.462952 -1.76099,0.728943 -4.51398,0.290955 -6.53,0.58197 -1.47598,0.210999 -2.82898,0.310974 -4.30298,0.41803 -2.34601,0.169983 -4.50101,1.14294 -6.79901,1.36499 -1.815,0.177979 -3.729,0.060974 -5.58,0.229004 -3.99,0.36499 -8.133,1.08197 -10.938,3.86298 -1.435,1.42401 -1.8,4.89801 -2.688,6.64502 -0.681,1.33197 -2.83499,3.55395 -3.11,4.92499 -1.523,7.56299 9.41701,15.719 16.049,18.217 8.66599,3.26599 11.488,-2.83398 16.293,-7.81397 6.08398,-6.30701 13.263,-11.19 21.397,-15.182 3.086,-1.51202 3.87698,-2.63702 3.854,-5.84204 0.119995,1.14301 0.046997,2.42004 0.557983,3.47504 1.20001,-0.315002 2.62,-0.16803 3.897,-0.335999 -4.96899,-0.119019 -9.34201,3.06397 -13.186,5.539 -1.259,0.80896 -5.64099,2.99396 -3.401,4.57599 1.43802,1.01599 3.172,0.685974 4.83502,0.932007 1.92798,0.28302 3.93198,0.909973 5.82797,1.37097 2.147,0.52301 9.82703,2.13104 6.78,4.84399 2.04001,-0.531982 4.40802,0.103027 6.39002,0.453003 1.051,0.187012 2.461,0.02301 3.31,0.567993 -0.06601,-0.872986 0.527008,-2.58795 0.803009,-3.60699 0.842987,-3.14301 2.426,-6.289 4.073,-9.14899 0.833008,-1.44696 4.50101,-5.28296 6.57199,-4.70099 -3.00598,0.580017 -5.18698,3.38501 -6.63901,5.61102 2.22803,-0.390015 4.20502,-1.49805 6.41,-1.91003 1.71802,-0.32196 3.574,-0.213013 5.27499,-0.445007 -3.32498,0.455017 -6.43597,1.09601 -9.75497,2.01599 -1.53,0.427002 -2.008,0.517029 -2.737,1.76501 -1.40802,2.414 -1.80801,4.92999 -2.931,7.39099 -0.387024,0.853027 -0.993011,1.83801 -0.792999,2.82001 0.671997,3.28003 5.13498,4.508 8.07498,5.71503 4.32501,1.77496 6.18802,4.65198 9.18701,7.815 2.28101,2.40997 3.95599,5.79401 7.664,6.71198 3.75998,0.934021 7.11798,-1.38 10.534,-2.271 -2.57199,1.11499 -6.14999,0.833984 -8.19299,2.72803 -2.388,2.21295 -4.354,7.35797 -3.54501,10.295 0.440002,-2.52899 3.06101,-8.27502 1.198,-10.398 -0.894989,-1.02002 -3.229,-1.73102 -4.37799,-2.77698 -4.04901,-3.68402 -5.91901,-9.11005 -11.417,-11.438 -1.987,-0.842041 -4.22302,-0.955017 -6.17001,-1.79706 -2.49301,-1.07794 -2.551,-4.06799 -5.36801,-4.82599 -0.988983,-0.265991 -8.73199,-0.442993 -8.86798,-0.179993 0.307983,-0.598999 0.945984,-1.00397 1.69299,-1.12299 -0.362,-0.906006 -1.81799,-1.73798 -2.85001,-2.19898 -4.949,-2.211 -13.674,-4.04706 -19.135,-2.61505 -3.43601,0.902039 -6.151,3.09003 -8.28201,5.578 -2.06201,2.40601 -4.18701,5.17401 -5.76901,7.85199 -0.944,1.60101 -0.291992,3.05603 1.237,4.09906 1.491,1.01794 3.74902,2.08197 5.44302,2.80499 4.55798,1.94501 9.71399,0.829956 14.55,1.32196 2.57001,0.262024 4.82101,0.057007 7.07501,1.36304 2.383,1.383 3.897,3.77795 5.60397,5.67798 -1.94598,-3.078 -8.97098,-6.78699 -13.073,-7.258 -5.09998,-0.588013 -9.819,0.218994 -14.877,-1.36499 -3.802,-1.18903 -13.469,-6.758 -16.923,-2.41602 -0.968002,1.21698 -1.11,4.72699 -1.54601,6.229 -0.776993,2.68701 -2.40199,6.078 -1.87399,8.86102 0.923996,4.86499 8.541,9.33997 13.063,11.662 2.21399,1.13501 4.43899,1.46301 6.83099,2.07398 2.151,0.55304 4.293,1.03699 6.53101,1.25201 3.07599,0.294983 6.215,0.198975 9.30301,0.382996 2.491,0.150024 4.935,0.570007 7.41898,0.72998 3.15201,0.204041 6.461,0.459045 9.604,0.452026 1.13699,-0.002014 2.16202,-0.424011 3.27002,-0.588013 1.392,-0.208984 2.74698,-0.154968 4.14499,-0.018005 -1.884,0.231018 -4.737,-0.169983 -6.41199,0.621033 1.53198,0.917969 2.745,2.22101 4.27698,3.12299 -1.207,-0.833984 -2.25998,-1.81403 -3.62399,-2.48401 -1.06201,-0.52002 -1.99399,-0.486023 -3.168,-0.573975 -4.23599,-0.315002 -8.48199,-0.924011 -12.739,-1.11902 -4.78497,-0.221008 -9.38699,-0.697998 -14.096,-1.448 -9.42001,-1.49799 -19.892,-4.65198 -24.252,-13.033 -2.233,-4.29096 1.59401,-9.336 2.21901,-13.596 0.789993,-5.396 -4.836,-9.69696 -10.456,-10.703 -2.383,-0.428955 -6.10399,-1.49597 -8.521,-0.782959 -2.25301,0.664001 -4.534,3.44299 -6.41299,4.69898 -1.948,1.30499 -3.72501,2.19 -5.117,4.07098 -3.711,5.01703 -0.378006,9.57605 5.789,10.313 5.097,0.609009 10.904,-3.60504 12.211,-7.71704 -0.820007,2.29102 -2.84801,4.07105 -5.076,5.49805 -2.009,1.28296 -2.077,1.396 -2.88699,3.41998 -1.623,4.05902 -3.327,7.37897 -3.517,11.838 -0.149002,3.56799 0.651001,8.992 3.648,11.428 3.93401,3.20099 9.25101,0.629028 13.514,1.74402 0.090988,-0.367004 0.404999,-0.924011 0.380997,-1.354 -0.011002,-0.11499 0.12999,0.890991 0.145996,1.12897 -0.063004,-1.32599 -1.061,-2.599 -1.293,-3.95496 3.12801,5.83197 9.629,9.76794 16.109,12.44 6.41901,2.65198 14.044,2.56195 20.912,1.74194 5.21298,-0.620972 9.50299,-0.417969 14.641,-0.034973 6.16699,0.463013 10.999,0.611023 16.995,-0.690002 4.44601,-0.965027 10.822,-1.914 11.477,-7.02301 0.414001,-3.24597 0.601013,-7.97498 -1.52197,-10.736 -1.77103,-2.30102 -5.04602,-3.586 -6.746,-5.89301 -1.078,0.962952 -2.40002,0.323975 -3.927,0.63501 -1.75601,0.356995 -3.13501,1.33795 -5.00201,1.41199 -5.59399,0.224976 -11.74,-1.547 -16.863,-3.42804 -3.832,-1.40796 -7.841,-1.68201 -11.612,-3.29498 -2.60199,-1.11499 -5.41199,-2.961 -8.06699,-3.789 -2.81702,-0.878967 -5.698,0.104004 -8.47,0.575989 1.52701,0.071045 3.02301,-0.659973 4.59601,-0.708984 -0.607025,-1.11102 -1.384,-2.39398 -1.59601,-3.58801 0.791992,4.49304 6.08499,4.04504 9.68799,5.59802 1.125,0.484009 2.09302,1.14996 3.18301,1.68799 2.04498,1.01099 4.384,1.43799 6.63098,1.953 2.12601,0.487976 4.302,0.817993 6.39002,1.435 1.862,0.549011 3.51801,1.49402 5.31299,2.19202 2.37402,0.921997 4.71701,1.02899 7.297,1.19098 2.50601,0.15802 4.59802,-0.27301 7.03101,-0.687012 1.98401,-0.333984 4.358,-0.695984 5.13501,-2.57696 0.863983,-2.09503 0.259003,-4.72601 -0.632996,-6.72601 -2.41901,-5.42602 -7.03702,-12.822 -13.36,-15.209 -1.64899,-0.622986 -2.42798,-1.289 -3.815,-2.19904 -1.659,-1.08997 -1.75998,-0.902954 -4.008,-1.05096 -1.5,-0.096008 -2.884,-0.455017 -4.36798,-0.514038 -1.75101,-0.065979 -3.34003,0.328003 -5.103,0.348022 2.17099,-1.27801 5.21197,-1.039 7.43799,-0.372986 -1.021,-1.026 -1.47201,-2.461 -2.46399,-3.54303 0.571991,1.09003 1.866,3.25 3.06299,3.86902 1.008,0.520996 2.57501,0.093994 3.66501,0.372986 2.25598,0.580017 3.745,2.50598 5.96799,3.39099 2.785,1.10699 6.18799,2.742 8.103,5.01703 1.88501,2.23999 2.672,5.43597 3.67801,8.06097 0.895996,2.34003 2.10098,4.599 2.199,7.09399 0.079987,2.052 0.561005,3.43903 2.28299,4.99005 2.84399,2.56397 7.008,4.24597 10.861,5.22797 3.56302,0.906982 7.06702,1.45898 10.729,1.362 3.58801,-0.09198 4.53302,-0.012024 6.84601,-2.22302 6.25699,-5.98395 9.875,-11.775 11.718,-20.02 0.459015,-2.052 -0.609985,-4.47601 -2.10898,-6.20898 -1.99802,-2.31305 -6.14002,-2.15002 -8.76602,-3.55804 -0.005981,-0.015991 0.114014,-0.269958 0.10202,-0.35199 -7.27402,-2.61902 -14.226,-4.349 -14.815,-12.258 -0.265015,-3.54999 1.12399,-6.85498 3.04401,-9.896 4.62698,-7.328 -4.02002,-9.38098 -9.358,-12.217 -1.52301,-0.809998 -3.74103,-2.58002 -5.62003,-2.66205 -3.13699,-0.134949 -5.47897,2.521 -8.47498,2.75604 -3.37302,0.263977 -7.65002,-1.172 -10.862,-1.979 -2.44501,-0.61499 -4.58301,-1.17004 -6.64002,-2.35504 -2.09299,-1.20496 -3.73999,-2.021 -6.23498,-0.937988 -3.17902,1.37701 -3.51401,5.26801 -6.983,7.28204 -3.353,1.94696 -7.284,3.23395 -10.798,4.88995 -3.771,1.77405 -11.787,4.49603 -13.213,8.43805 -1.004,2.77295 -0.994995,6.95496 0.360992,9.60095 -1.46399,-3.79096 -0.18399,-7.25 -0.367981,-10.927 -0.080994,-1.61395 -0.541016,-1.672 -2.095,-2.354 -3.03101,-1.32996 -6.10501,-1.85895 -8.23801,-4.45898 1.62601,2.23102 6.633,4.539 9.612,5.05902 1.73199,0.304016 5.12799,-1.50201 6.82101,-2.06299 3.75998,-1.24805 7.15399,-3.41205 10.663,-5.11304 3.866,-1.875 8.164,-2.99799 10.36,-6.672 1.22501,-2.047 2.87402,-3.59796 2.104,-6.02698 -0.639984,-2.01001 -2.69501,-3.89899 -4.51498,-5.11902 -2.043,-1.36597 -4.37601,-2.45502 -6.784,-3.20697 -1.867,-0.584045 -3.862,-0.762024 -5.724,-1.35803 -1.64603,-0.528992 -3.06601,-1.41199 -4.74301,-1.914 -3.43201,-1.02698 -7.20099,-1.01196 -10.774,-0.843994 -1.68602,0.075012 -3.41402,0.02002 -5.06201,0.414001 -1.58701,0.380981 -3.216,0.890991 -4.75501,0.333984 -3.224,-1.164 -4.61999,-5.11298 -4.77699,-7.849 -0.229004,-3.93201 1.42299,-7.02197 2.60399,-10.654 0.786011,-2.41498 1.653,-4.80902 1.554,-7.35199 -0.067993,-1.78699 -0.390991,-1.87097 -2.42,-2.172 -1.778,-0.263977 -3.603,-0.410034 -5.403,-0.242004 -4.70399,0.439026 -7.21699,4.55499 -8.61299,8.10901 -1.79601,4.56299 -3.23702,8.82196 -3.90401,13.629 -0.531006,3.82001 -0.675003,7.25403 0.104004,11.022 0.714996,3.45697 0.463989,6.55798 5.23799,6.04297 -0.931,-0.234985 -2.10199,0.308044 -3.17299,0.078003 1.101,3.03101 2.982,6.16803 4.707,8.961 -3.84001,-4.57996 -6.869,-10.707 -7.63701,-16.399 -0.582001,-4.31598 0.427002,-9.914 1.90401,-14.076 1.894,-5.33203 1.646,-12.789 7.89899,-15.953 0.434006,-0.562988 1.563,-1.20502 2.47101,-1.41803 -7.49699,0.69104 -16.242,-1.56299 -17.451,-9.08795 1.146,3.38501 5.185,7.539 9.11301,8.71698 2.237,0.669983 4.918,0.122986 7.24199,0.370972 1.55,0.166016 2.811,0.133057 4.43102,0.133057 2.99499,0 5.95399,0.438965 8.84698,-0.28302 3.96201,-0.989014 8.409,-2.95203 11.971,-4.75 -4.22501,1.435 -8.115,3.69501 -12.238,5.32599 -1.771,0.700989 -2.368,0.900024 -2.90599,2.54102 -0.654007,1.99799 -0.729004,4.09699 -1.15401,6.13501 -0.410995,1.97595 -1.439,3.664 -2.03799,5.58698 -1.21201,3.89301 -1.448,8.27801 1.53,11.608 3.21699,3.59399 8.565,0.450989 13.421,0.309998 6.328,-0.188049 10.396,2.29096 15.858,4.20898 3.34399,1.17596 7.63202,1.70196 10.553,3.68799 2.76199,1.875 3.854,4.664 7.20001,6.20502 6.84299,3.15601 15.31,6.46698 23.116,6.06598 7.96698,-0.406006 10.1,-7.56201 11.418,-13.431 0.770996,-3.43603 1.116,-6.92804 1.577,-10.401 0.427002,-3.224 1.67499,-6.15204 1.94098,-9.39203 0.671021,-8.125 -5.41598,-8.85999 -13.298,-11.268 -3.91901,-1.19501 -10.294,-4.15601 -14.378,-4.06799 -2.40799,0.051025 -6.496,2.13098 -9.146,2.56 2.728,-1.15601 5.551,-2.18799 8.42102,-3.04797 -5.45401,-1.65301 -4.30002,-4.60602 -7.60703,-8.08801 3.76001,11.111 23.436,9.349 31.795,14.959 7.93799,5.328 3.95499,12.736 2.78601,20.996 -0.618011,4.36499 -1.49301,9.12299 -3.104,13.297 -1.51001,3.914 -2.65201,4.25397 0.686981,6.927 1.68802,1.35199 4.164,1.508 6.16602,2.41998 3.87698,1.76398 8.72101,4.89697 7.24899,9.45099 -0.945007,2.92798 -2.71701,5.56299 -3.35199,8.68201 -1.604,7.90198 5.52899,13.99 13.605,15.809 3.85901,0.868958 8.59802,1.64996 12.475,0.436951 5.52499,-1.73199 5.129,-5.89996 8.52301,-9.375 -1.81399,-1.22797 -2.68802,-3.31799 -2.60699,-5.396 -0.321014,8.24805 17.416,-1.67395 20.181,-3.30896 6.681,-3.95105 7.504,-10.039 11.059,-15.99 3.021,-5.05505 0.595001,-6.91003 -0.48999,-12.664 -1.14603,-6.08801 1.91998,-11.879 2.888,-17.811 1.34198,-8.242 2.918,-26.931 -9.698,-28.83 -3.966,-0.598999 -8.72501,1.08203 -11.578,3.77002 -1.62601,1.53101 -2.21002,3.51898 -4.31302,4.62701 -3.117,1.646 -6.66699,-0.416016 -9.604,1.40802 3.08801,-0.551025 6.20502,-1.00201 9.29102,-1.565"/>
<path id="path168" d="m 247.58,599.453 c -2.699,1.01599 -7.349,0.012024 -9.364,-1.703 -1.649,-1.40399 -4.573,-4.80298 -1.147,-5.98199 2.444,-0.840027 5.854,0.304016 8.052,-1.073 0.671997,-0.423035 1.27,-1.32404 2.04199,-1.828 0.654007,-0.426025 1.252,-0.867004 1.87601,-1.24799 0.311996,-0.02301 0.841995,0.001953 1.16699,0.001953 1.05101,0.965027 2.96901,3.69702 3.358,5.00201 0.738998,2.48602 -3.629,5.94501 -5.98399,6.83002 z "/>
</g>
<g id="g170">
<path style="fill:#f26522" id="path172" d="m 263.141,580.002 c -0.402985,-1.45099 -2.396,-4.48602 -3.48498,-5.55701 -0.338013,0 -0.890015,-0.026978 -1.21201,-0.004028 -0.647003,0.424011 -1.26901,0.914001 -1.94601,1.38904 -0.803986,0.55896 -1.42299,1.56299 -2.11998,2.02899 -2.28,1.52997 -5.82001,0.26001 -8.358,1.19202 -3.55701,1.31195 -0.521011,5.086 1.19099,6.646 2.09399,1.90796 6.92,3.021 9.72201,1.89496 2.44199,-0.980957 6.97598,-4.82495 6.20798,-7.58997 z "/>
</g>
<g id="g174">
<path style="fill:#6c9d31;stroke:#6c5635;stroke-width:.6" id="path176" d="m 179.645,729.5 c 0.940002,0.841003 1.95999,1.62799 3.06099,2.34998 5.02701,3.30701 11.407,2.77301 16.044,6.73901 4.036,3.448 6.12801,7.41504 7.31799,12.569 1.365,5.91095 2.15701,12.41 9.985,11.605 0.892014,-5.42297 -6.24699,-8.07202 -8.03299,-12.854 -2.561,-6.84998 0.616989,-7.72797 4.625,-11.88 1.983,-2.06097 2.047,-4.06397 3.34,-6.50201 1.504,-2.83398 4.24899,-4.87396 5.895,-7.63196 2.75099,-4.612 5.70799,-9.599 6.989,-14.881 0.916992,-3.78699 0.324997,-7.117 -1.521,-10.426 -0.294006,-0.52301 -9.037,-16.159 -10.246,-14.152 -0.563004,0.932007 -2.509,2.73602 -3.647,3.70502 0.876999,-1.18701 1.918,-1.50702 2.602,-2.742 1.03899,-1.88599 1.24499,-4.80298 1.03299,-6.88898 -0.498993,-4.91901 -3.494,-7.69904 -6.989,-10.188 -1.854,0.365967 -3.60899,1.61798 -5.28301,2.50995 1.82101,-1.06494 4.49301,-1.88397 5.61101,-3.53796 1.42,-2.099 1.345,-6.13403 1.14,-8.54602 -0.186005,-2.177 -1.336,-6.75598 -3.84801,-7.60999 -1.96799,-0.669983 -4.528,1.58398 -6.157,2.34699 3.70801,-1.73096 7.07701,-3.66101 8.134,-7.909 0.641006,-2.578 0.608002,-9.82398 -2.306,-11.196 1.824,-2.02399 6.98601,-7.64703 2.709,-10.02 1.903,-2.19098 5.903,-10.825 3.22101,-13.48 2.55899,-3.32703 4.77699,-7.02301 4.56299,-11.299 -0.091995,-1.86499 -0.231995,-3.38898 0.141006,-5.271 0.067001,-0.346985 1.692,-5.11401 1.868,-4.89197 -1.563,-1.99103 -3.31799,-4.15002 -5.112,-6.104 6.59199,7.18695 11.934,9.44696 21.822,7.57898 -1.563,0.775024 -3.24901,0.69397 -4.849,1.20801 3.71599,4.90698 10.581,7.06397 16.356,6.31397 0.67601,-0.086975 0.796005,-0.743958 1.66501,-0.641968 1.293,0.151001 3.203,2.06598 4.32501,2.69098 2.95599,1.64502 9.13397,4.82001 12.42,2.56702 1.81302,3.92596 10.775,2.66296 14.079,2.32001 4.18298,-0.437012 5.67899,-0.862 8.38599,-3.55499 1.478,1.40399 9.76001,0.804993 9.27902,-2.33905 0.230988,1.513 8.13397,-0.273987 8.96899,-0.588989 2.944,-1.10901 5.36298,-3.177 7.18698,-5.71698 1.93601,4.349 15.16,1.25702 16.301,-3.09601 3.38101,0.603027 16.625,0.468018 15.095,-5.59399 2.699,1.88397 9.15201,1.66498 11.904,-0.526978 1.23999,-0.987 2.25,-4.27801 3.51099,-4.854 1.65802,-0.751038 5.82001,1.06897 7.80701,0.797974 1.17001,-0.159973 1.922,-0.291992 2.729,-1.07501 0.182007,-0.172974 -0.106995,-1.05298 0.113007,-1.19397 1.11899,-0.721008 1.49298,0.078003 3.526,0.044983 7.84097,-0.127014 9.09399,-7.33099 15.041,-9.65399 2.39899,-0.937988 6.82599,1.888 10.201,1.87097 7.70602,-0.032959 11.267,-4.04797 14,-10.454 15.904,9.21503 16.495,-15.365 7.17602,-22.997 -9.362,-7.66498 -37.038,-10.458 -42.623,2.93799 -3.647,-1.62799 -7.99701,-1.25696 -11.78,-0.103943 -2.069,0.630981 -2.52899,2.33899 -4.03198,3.64294 -1.871,1.62604 -4.25,1.82001 -6.57602,2.25604 -3.80899,0.713989 -5.50198,1.789 -6.44699,5.67895 -1.599,-0.333984 -3.245,-0.487 -4.883,-0.23999 -0.524017,0.078003 -4.10101,1.62 -4.17102,1.58099 0.787018,0.414001 1.461,1.21002 1.479,2.13501 -3.21201,-2.15497 -5.668,-3.84198 -9.52399,-2.591 -3.17902,1.02899 -9.13602,3.78601 -8.58002,7.82105 -0.822998,-0.397034 -1.41299,-1.29303 -2.15698,-1.63702 -1.979,-0.913025 -4.754,-0.385986 -6.801,-0.030029 -2.802,0.482056 -9.66101,1.54804 -8.724,5.61401 -5.82501,-0.20697 -13.69,-4.10101 -19.094,-0.242981 -0.03299,0.127991 -0.026001,0.255005 0.02002,0.377991 1.112,0.538025 2.242,1.22003 3.13599,2.03003 -0.062988,0.086975 -0.229004,0.393982 -0.276001,0.507996 -3.72598,-1.70599 -7.263,-5.49701 -11.844,-4.10004 -2.98099,0.908997 -4.862,4.62701 -1.483,6.05902 -5.823,-1.58698 -11.113,-2.95203 -16.629,-5.35699 -4.04401,-1.76501 -7.70599,-1.69598 -11.95,-1.52801 -3.548,0.138977 -6.832,-0.638977 -8.59,-3.97101 -1.492,-2.82996 -1.63101,-6.28601 -4.735,-8.099 -3,-1.74896 -11.051,-1.65497 -13.079,1.479 -0.903,-1.604 -5.948,-3.70697 -7.933,-4.27399 -3.82899,-1.099 -8.187,0.036987 -11.5,1.98297 -3.716,2.18201 -6.336,4.72803 -8.00099,8.77905 -0.906998,2.21198 -2.61801,5.74298 -1.68201,8.06995 -3.24699,0.600037 -5.81799,3.83301 -6.96699,6.716 -0.684998,1.71802 -0.479004,3.89905 -1.146,5.48804 -0.422012,1.00201 -0.493011,0.792969 -1.42401,1.68701 -2.864,2.75 -5.10399,4.29395 -5.77699,8.58197 -0.255997,1.633 0.283005,4.00098 -0.178009,5.47003 -0.662994,2.10895 -2.903,3.362 -3.478,5.78699 -0.388992,1.63501 -0.030991,3.00201 -0.078003,4.66101 -0.037994,1.35394 -0.133987,2.96399 -0.639999,4.01495 -0.406998,0.850037 -1.47,1.45404 -1.87799,2.35199 -1.563,3.43805 -0.833008,14.3961 4.271,14.415 -4.75,-2.67602 -7.582,4.33496 -6.384,8.11902 -4.40599,0.013977 -5.961,8.87195 -5.715,12.003 0.315994,4.00696 3.73801,10.24 8.61,9.67499 -9.45,-5.89801 -11.177,9.37799 -10.104,15.607 0.471008,2.729 1.849,5.59198 2.93901,8.104 0.993988,2.28601 1.16699,2.41797 0.381989,4.49902 -1.45599,3.86694 -2.174,6.60999 -0.681992,10.757 0.610992,1.69904 2.375,5.651 4.41299,5.93103 -0.598999,10.875 1.65401,22.876 10.115,30.433 z "/>
<path style="fill:url(#path191_1_)" id="path191" d="m 155.476,716.347 c 0.085007,0.294006 0.180008,0.588013 0.287003,0.877991 3.02499,8.20703 12.18,14.269 20.664,15.306 11.954,1.46301 20.401,-3.42102 27.229,-13.006 3.429,-4.815 4.368,-10.65 3.01,-16.36 -0.988007,-4.16296 -3.668,-12.257 -7.81799,-14.271 -2.371,-1.14899 -4.51201,0.177002 -7.151,0.011047 6.21699,0.388977 4.077,-10.902 1.547,-13.564 -1.84801,-1.94202 -5.465,-2.61603 -8.063,-3.00098 -3.78799,-0.561035 -6.672,1.625 -10.393,1.45099 -3.702,-0.171997 -6.66299,-3.35999 -10.126,-3.71704 -4.62201,-0.477966 -7.24701,3.71906 -8.15201,7.73401 -1.07799,4.79102 -2.08299,4.26202 -4.97,7.76001 -2.243,2.71698 -3.72899,6.289 -1.71699,9.56 1.412,2.29102 3.539,2.88403 4.424,5.89899 1.45401,4.95203 -0.188995,10.367 1.229,15.32 z "/>
<path style="fill:#537f24" id="path193" d="m 168.507,688.578 c 4.051,5.612 11.057,9.461 17.878,6.258 0.5,0.312988 0.944,1.30298 1.315,1.771 0.593002,-0.140991 1,-0.903992 1.62401,-0.864014 4.34999,9.67304 18.332,-5.69196 21.287,-10.841 -8.79199,11.997 -27.837,3.35699 -18.32,-9.79895 0.007004,0.359985 0.181,0.629944 0.516006,0.806946 5.51199,-0.600952 9.33099,-1.44995 14.069,-6.48798 -11.847,8.42499 -19.716,-2.54901 -17.177,-13.923 6.70599,2.354 14.027,-2.15802 16.563,-8.46002 -11.349,12.2 -21.06,-3.22998 -14.33,-13.354 4.06799,3.35303 11.34,2.28497 14.65,-1.66797 -11.295,3.78497 -15.961,-1.29303 -13.011,-11.8701 1.81,1.60303 3.752,1.61102 6.287,1.69202 -7.19701,-3.70196 -4.336,-13.093 -1.423,-18.637 3.013,1.53796 5.048,3.84198 8.40801,3.099 -3.468,-2.46704 -6.383,-5.88501 -4.604,-10.369 1.885,-1.13898 2.73601,-4.50299 4.646,-5.23999 3.35301,-1.29504 5.61801,2.26398 8.461,-0.682007 -1.95799,-4.39801 -6.46899,-7.68402 -9.52399,-11.476 -2.666,-3.30902 -4.24901,-6.69202 -6.77,-10.151 -0.166,8.96301 -1.92101,17.691 -11.658,8.37299 -0.518997,5.341 7.142,7.97003 11.545,8.99402 -2.651,7.03601 -6.57899,13.543 -15.74,8.521 2.61699,3.63898 6.983,4.47699 11.234,4.87299 -0.569992,7.48004 -7.58499,13.677 -15.088,12.418 2.88699,1.79498 7.352,3.42297 10.617,1.08197 -0.075012,0.689026 -0.34201,1.39905 -0.647003,2.07703 0.25,0.062988 0.436996,-0.015991 0.556992,-0.233032 -2.10599,6.19904 -1.52399,14.528 -10.872,12.582 2.135,1.53302 4.79201,2.01898 7.40801,1.51697 0.213989,9.68005 -1.47101,11.484 -10.866,7.12903 2.48,2.73297 7.062,4.021 10.775,4.79498 -2.297,8.23499 -2.207,20.938 -15.611,15.968 3.12601,2.521 7.10701,2.422 10.67,1.58801 2.20499,5.091 3.65199,10.701 3.05499,16.445 -5.52499,1.42395 -10.441,3.89697 -16.135,1.34198 4.549,4.25 12.649,-0.169006 15.843,2.27899 1.06,0.812988 2.48599,12.112 1.72899,13.405 -3.94099,6.72095 -13.45,-2.80102 -18.177,-5.40503 -0.352997,4.26099 5.09401,7.09802 8.584,8.72101"/>
<path style="fill:#8cc63f" id="path195" d="m 183.838,574.322 c -0.802994,9.745 -5.78,18.859 -8.479,28.168 -5.06599,17.477 -8.06699,33.846 -7.34399,52.104 0.817993,20.662 1.728,57.858 21.025,71.103 -11.951,-19.0031 -15.154,-41.138 -16.573,-63.348 -1.601,-25.077 1.42601,-58.47 16.008,-79.616 1.648,0.591003 3.396,0.437012 4.907,1.74103 -4.93201,-4.48401 -9.01201,-7.96802 -10.77,-14.447 0.186996,2.367 0.343994,5.36505 0.834,7.87402"/>
<path style="fill:#537f24" id="path197" d="m 383.611,546.556 c 5.74899,1.30896 17.161,14.113 19.263,0.467957 -0.798981,5.18402 -0.492981,15.852 -9.388,11.21 -0.816986,10.418 -8.604,6.33997 -15.634,7.888 -2.76797,0.609009 -5.15799,-0.442993 -7.45599,0.546021 -3.32199,1.43298 -5.44998,5.62598 -9.06601,7.18897 -5.11697,2.21198 -12.948,4.79901 -18.321,3.37701 -3.17499,4.01697 -10.41,9.82898 -15.26,5.737 -4.15299,5.58301 -10.721,5.073 -16.211,6.74402 -3.332,1.01599 -5.27298,3.10297 -9.02701,3.13898 -0.603973,0.007019 -8.01099,-1.49799 -6.98898,-2.21301 -3.487,2.44299 -9.85602,10.179 -13.975,6.63403 -4.09299,5.57196 -11.022,2.99298 -17.021,5.00195 -8.94699,2.99805 -11.785,0.743042 -19.91,-1.40796 -2.646,-0.702026 -5.07999,-0.05603 -8.38101,-1.49402 -2.48398,-1.08398 -4.15599,-3.51501 -7.05598,-3.823 -4.86301,-0.510986 -11.928,5.12097 -13.989,-3.85999 -3.98201,0.710999 -10.235,-0.718994 -13.916,-2.44104 -2.185,-1.02197 -8.149,-8.362 -9,-8.48798 5.22499,0.773987 10.436,-5.07098 15.096,-6.54303 -2.35599,2.26105 -5.50699,4.52203 -6.72699,7.27203 2.416,0.882996 5.95599,0.60498 8.192,2.013 1.42099,0.893982 1.87599,4.245 4.34099,5.341 6.435,2.85999 12.271,-5.11304 16.098,-9.97101 -1.286,2.62402 -11.002,11.767 -10.486,13.616 1.731,6.20599 13.112,-0.370056 15.637,-1.72803 4.174,9.76001 10.622,2.88501 12.077,-4.20099 2.16699,-10.563 -6.89102,-12.949 -15.082,-16.041 -0.041992,1.435 -0.712006,3.03101 -0.565994,4.51001 -0.669006,-7.53503 -20.973,-6.84399 -20.583,-9.82202 -0.289001,2.20404 -1.175,4.35101 -1.578,6.30603 0.628006,-2.22302 -0.834,-5.65002 -3.799,-7.12201 0.734009,-4.146 -2.65399,-9.44904 -4.40199,-13.587 1.99699,1.75494 3.912,3.85498 5.521,5.95196 -0.333008,-1.005 -0.292007,-2.18201 -0.531998,-3.16797 2.453,3.573 9.25299,10.067 13.581,6.67096 -0.446991,1.052 -0.257004,2.61401 -0.819992,3.80102 3.666,4.34497 6.784,2.80798 7.614,-2.12903 2.203,1.91602 16.736,14.27 15.775,4.72699 0.661987,6.52203 12.323,7.36102 16.735,6.89502 -0.410004,-1.47101 -0.29599,-3.125 -1.302,-4.64301 3.457,5.492 17.646,9.53198 15.088,-1.10901 1.26599,1.31201 1.67398,3.21503 2.18201,4.92505 -0.46402,0.633972 -0.979004,0.665955 -1.51801,1.16095 2.91598,2.45904 8.095,0.360046 12.221,0.552002 -3.771,0.938049 -7.71799,4.53302 -11.461,2.49304 0.703003,2.17297 1.492,4.45996 2.27801,6.59699 -2.729,-7.72998 -8.43701,-5.375 -14.568,-4.88403 0.759003,1.83502 1.20398,4.19104 2.38098,5.95605 -3.24899,-4.35101 -4.285,-5.47601 -9.00699,-6.76404 -2.91901,-0.795959 -3.92001,1.05402 -7.08499,-0.747986 1.29797,3.04401 5.19598,9.698 0.078979,10.33 0.196014,2.56299 -0.342987,5.01495 -1.21698,7.59198 2.47498,4.88397 20.158,5.46698 21.53,0.142029 2.70099,2.22095 5.91998,0.731995 8.33798,-0.602051 0.121002,-0.972961 0.531006,-1.79895 0.799011,-2.61395 6.59799,4.52997 14.576,-1.34503 17.333,-7.36603 1.90799,2.88397 9.03,5.82703 11.959,2.466 2.979,-3.41901 -0.687988,-10.426 -3.67099,-12.623 -2.448,-1.80499 -4.38202,-0.752991 -6.521,-2.32404 -1.92001,-1.40796 -4.461,-5.64301 -5.67902,-6.88995 5.03201,4.56299 22.728,8.30798 15.311,-3.40802 1.28,2.224 2.871,4.16101 4.862,5.86798 4.94101,-2.89001 14.373,-2.20502 13.201,-10.512 -0.228973,1.95996 0.761017,3.56897 1.24701,5.341 2.57001,-0.930054 5.26199,-1.90301 7.92902,-2.77405 -6.33102,3.32904 -13.036,5.43805 -19.239,8.68201 1.22601,1.02899 2.20001,2.57098 3.457,3.45001 -5.72601,-4.46503 -10.457,-2.83002 -16.528,0.116028 4.418,-2.14404 7.48798,8.56097 9.418,10.223 2.93298,2.52899 15.372,3.55798 10.606,-2.27301 -0.178009,-1.16699 0.195984,-2.89996 0.104004,-4 6.176,0.979004 11.644,7.84802 16.857,-0.33197 0.278992,0.300964 0.563995,0.596985 0.858002,0.886963 0.868011,-2.62598 0.589996,-5.23096 -0.962006,-7.51794 4.94,6.68298 12.285,9.37994 12.307,-1.75403 2.73099,12.385 16.012,3.66498 18.104,-4.159 0.488007,-0.130981 2.20801,-0.627991 3.108,-0.836975 12.378,5.18597 30.255,-4.90204 12.301,-14.312 -7.134,-3.73499 -10.858,0.645996 -17.646,3.36401 0.924988,2.30298 1.41498,4.72595 1.285,7.21198 -2.89401,-10.008 -12.318,-4.56799 -19.121,-1.32001 0.403992,1.448 0.347992,3.513 0.791992,4.76099 -1.078,-2.77899 -1.98199,-3.22595 -4.12399,-4.94501 4.65698,-1.57996 22.776,-8.56799 13.064,-15.483 -4.97,-3.53302 -14.062,1.23102 -13.576,7.25098 -2.77002,-6.76898 4.44699,-10.156 10.095,-10.791 4.04602,-0.453003 4.535,0.235962 8.181,-0.891052 3.76202,-1.16199 6.21701,-5.32898 10.271,-3.12195 -5.07001,0.233948 -13.081,4.77197 -11.212,10.836"/>
<path style="fill:#8cc63f" id="path199" d="m 201.877,552.745 c 1.22501,0.911987 3.313,1.44202 4.673,2.07703 -0.044006,-1.479 0.496002,-1.37305 0.641998,-2.05902 1.782,11.85 19.748,13.763 28.74,15.92 19.045,4.573 39.458,6.74701 58.7,1.90399 22.702,-5.71295 47.275,-12.347 68.414,-22.56 3.96201,-1.91296 8.60202,-3.49396 12.301,-5.578 4.62003,-2.60095 7.96503,-7.73395 13.206,-9.17895 0.337006,-0.093994 -4.14102,6.86096 -4.827,7.53497 -2.336,2.28503 -5.13702,3.70099 -7.97702,5.17602 -5.84299,3.03101 -12.716,6.89697 -19.118,8.487 -20.675,5.138 -39.825,15.179 -61.136,18.566 -19.596,3.11401 -44.51,5.89001 -63.721,-0.278992 -5.756,-1.84998 -11.659,-3.57703 -17.118,-6.216 -8.33501,-4.02698 -6.84801,-7.18298 -11.587,-13.668"/>
</g>
<g id="g201">
<path style="fill:#ffc20e;stroke:#000;stroke-width:.3" id="path203" d="m 301.25,137.144 c -2.97101,1.28801 -6.21399,2.203 -10.565,3.24501 -9.97,2.38798 -20.401,3.588 -28.964,9.73399 0.627991,0.320999 1.965,0.876999 2.62198,1.095 7.38702,-5.827 19.456,-8.54401 28.529,-9.875 4.03598,-0.593002 10.827,-1.89101 14.585,0.528992 6.065,3.90801 2.806,10.325 2.27701,16.377 -0.295013,3.39002 -2.319,11.651 2.25598,13.259 3.27301,1.15001 7.73401,-2.62399 10.002,-4.55499 2.974,-2.53301 6.379,-4.806 8.36899,-8.26401 1.754,-3.049 2.42001,-6.21199 3.79202,-9.357 2.25098,-5.16 7.237,-11.102 1.11798,-15.955 -3.85001,-3.056 -11.23,-5.896 -16.246,-5.228 -3.00198,0.399002 -6.29098,1.496 -8.69699,3.381 -3.32599,2.60901 -6.06101,4.30501 -9.078,5.614 z "/>
<path style="fill:#faa41a" id="path205" d="m 319.707,150.709 c -0.687988,0.330002 -1.711,0.755005 -2.569,0.889008 0.156006,0.133987 0.591003,0.546997 0.800995,0.765991 -2.27899,0.014999 -3.21799,2.558 -0.928986,3.33701 0.014984,0.341003 -0.326996,0.505997 -0.151001,0.860992 1.27899,0.624008 2.496,0.223999 3.50198,-0.813995 -0.014984,0.117004 0.303009,0.972992 0.33902,1.132 -1.48801,0.366989 -1.57602,0.347992 -0.900024,1.784 -1.767,0.656998 -3.138,2.643 -1.78299,4.242 0.338013,-0.387009 1.207,-0.796005 1.63699,-1.34001 -0.075989,0.646011 0.154022,0.943008 0.174011,1.267 2.29001,-1.77399 3.23001,-4.45699 4.46899,-6.82999 -0.287994,-0.278 -0.557007,-0.117004 -0.783997,-0.264008 0.835999,-0.612991 0.612,-1.06 1.09799,-1.83701 -0.645996,-0.339996 -0.960999,-0.523987 -1.68799,-0.620987 -0.020996,-0.032013 0.451996,-0.568008 0.417999,-0.806 -0.348999,-0.153 -0.738007,0.056 -1.01801,-0.263 0.472992,-1.20401 1.383,-2.08101 2.51401,-2.74301 0.070984,-0.052994 -0.811005,0.016006 -0.789001,0.021011 0.800995,-0.243011 1.44199,-0.751999 2.06299,-1.91 1.172,1.297 2.396,1.323 2.39502,-0.751007 1.60599,0.192001 0.505981,0.154999 1.88898,-0.909988 1.371,-0.111008 1.70102,-0.64801 1.147,-2.16501 -0.307007,-0.097992 -0.531982,0.182007 -0.651978,0.158005 0.001984,0.001999 0.399994,-0.617996 0.307983,-0.813004 -0.436005,-0.126999 -0.895996,-0.143997 -1.362,-0.253998 4.20599,0.990997 2.534,-5.916 2.06101,-7.173 -0.557007,-1.478 0.531982,-1.823 -1.021,-2.974 -1.327,-0.983002 -3.73901,-0.220993 -5.25601,-0.360992 5.10699,0.474991 12.121,0.091995 11.308,7.502 -0.479004,4.375 -3.29501,8.43199 -5.11401,12.199 -0.156982,-0.289001 -0.311005,-0.620987 -0.492981,-0.927994 -0.308014,-0.175003 -0.481018,0.395004 -0.633026,0.309998 -0.112976,-0.097992 -0.268982,-0.617004 -0.395996,-0.783005 -0.877991,0.69101 -1.09,0.480011 -1.272,1.5 -1.20798,0.587006 -0.908997,0.73201 -1.30499,1.74 0.886993,-0.106995 1.95099,0.274994 2.83701,0.031006 -0.839996,0.533997 -0.690002,1.15399 -1.13699,1.696 3.25998,2.681 -4.797,9.306 -6.47702,10.617 -2.793,2.181 -12.958,8.54701 -13.248,0.332001 0.182983,0.359009 0.878998,0.96701 1.18799,1.35901 -0.415985,-0.528 3.263,-0.847 3.41501,-0.847 -0.096985,-1.633 -1.43399,-3.855 -3.353,-2.907 0.240997,-2.05 2.91598,-4.39 -0.123993,-5.56401 -0.110016,-0.041992 1.772,-7.55199 2.448,-8.35399 0.173981,0.138992 0.359985,0.155991 0.562988,0.052994 1.10101,-0.559998 -4.258,-13.946 -9.49399,-11.416 0.729004,-0.804993 1.74399,-1.498 2.595,-2.227 0.914001,-0.209991 1.539,-0.355988 2.60199,-1.06299 -3.00601,2.241 0.78299,3.83099 2.77701,2.502 -0.188019,-0.033005 -0.645996,0.001999 -0.787994,-0.081009 0.78598,0.037003 1.81299,0.468002 2.57498,0.682999 -0.850006,0.893005 -1.17099,2.425 -0.246002,3.74101 -0.194977,-0.25 -0.639984,-0.630005 -0.78598,-0.806 -0.973999,1.638 -0.333008,3.463 1.39499,4.263 0.009003,-0.013 0.550995,-0.522003 0.606995,-0.569 -2.25101,1.81 2.12701,2.758 3.146,2.45799 0.160004,1.14 0.679016,2.12601 1.49701,2.931 z "/>
</g>
<g style="fill:#faa41a">
<path id="path207" d="m 253.301,214.326 c -0.274002,-0.286011 -0.350998,-0.828003 -0.144989,-1.729 -0.522003,-0.070007 -2.80301,-0.044006 -3.08801,0.417999 0.53801,-0.869995 0.60701,-2.186 0.781006,-3.15801 0.089996,-0.500992 -2.8,1.847 -3.078,2.43001 -0.315002,0.656998 -0.783997,2.47099 -0.506989,3.23999 0.68399,1.895 2.894,2.41301 4.63798,2.871 4.04401,1.06201 9.981,1.37401 14.038,0.104004 2.84399,-0.891006 5.56799,-1.857 6.43899,-5.093 0.738007,-2.744 -0.569,-7.625 -4.241,-6.83899 1.19,0.913986 2.32901,2.36099 0.972992,3.55499 1.827,0.503998 1.48901,4.442 -0.712006,3.09 -0.789978,1.155 -0.68399,0.695007 -1.49899,1.22301 -0.109985,0.322998 -0.446991,1.064 -0.652985,1.34399 -2.513,0.859009 -5.99902,-1.746 -8.03702,-0.923004 0.270996,-0.110001 0.877014,-0.666 1.43802,-0.811996 1.31101,1.017 2.229,-0.619995 2.332,-1.744 -1.76102,-0.875 -7.39601,3.356 -8.67902,2.02301 z "/>
<path id="path209" d="m 234.207,177.409 c 2.407,1.575 8.99899,0.707001 7.43201,-3.284 -1.35501,0.589996 -3.49701,0.863007 -2.96101,2.705 0.053009,0.181 -3.19699,0.335999 -3.549,0.334 -0.257996,0.255997 -0.264999,0.537994 -0.020996,0.845993"/>
</g>
<g style="fill:#020100" id="g307">
<path id="path309" d="m 429.429,217.9833 h -4.698 v 4.37399 h 5.25598 v 1.314 h -6.84 v -12.132 h 6.569 v 1.313 h -4.98498 v 3.834 h 4.698 v 1.297 z "/>
<path id="path311" d="m 431.787,222.0703 c 0.485992,0.287003 1.31399,0.611008 2.10498,0.611008 1.13501,0 1.67401,-0.557999 1.67401,-1.29601 0,-0.755997 -0.449005,-1.17 -1.60199,-1.60199 -1.58402,-0.576004 -2.32202,-1.42201 -2.32202,-2.46701 0,-1.403 1.15201,-2.556 3.00601,-2.556 0.882996,0 1.65601,0.234009 2.125,0.540009 l -.379,1.134 c -0.34201,-0.196991 -0.972015,-0.503998 -1.78101,-0.503998 -0.936981,0 -1.43899,0.540009 -1.43899,1.188 0,0.737 0.503998,1.062 1.638,1.494 1.49399,0.557999 2.28699,1.313 2.28699,2.62799 0,1.548 -1.207,2.62801 -3.23999,2.62801 -0.954987,0 -1.836,-0.251999 -2.448,-0.612 l .376,-1.186 z "/>
<path id="path313" d="m 442.677,223.8703 c -2.34,0 -4.177,-1.729 -4.177,-4.482 0,-2.916 1.927,-4.62601 4.319,-4.62601 2.50201,0 4.19501,1.81801 4.19501,4.464 0,3.24 -2.25,4.645 -4.32001,4.645 l -.017,-.001 z  m .053,-1.188 c 1.513,0 2.646,-1.422 2.646,-3.401 0,-1.47699 -0.738007,-3.32999 -2.60901,-3.32999 -1.85397,0 -2.664,1.728 -2.664,3.38399 0,1.90801 1.08002,3.34801 2.60901,3.34801 l .018,-.001 z "/>
<path id="path315" d="m 449.013,217.8043 c 0,-1.116 -0.019989,-2.01601 -0.071991,-2.84401 h 1.422 l .09,1.494 h 0.036011 c 0.630005,-1.08 1.67401,-1.692 3.078,-1.692 2.12399,0 3.70801,1.782 3.70801,4.42801 0,3.133 -1.92602,4.681 -3.96002,4.681 -1.17099,0 -2.16,-0.503998 -2.68298,-1.36801 h -0.035004 v 4.73401 h -1.58402 v -9.433 z  m 1.584,2.322 c 0,0.216003 0.018005,0.450012 0.071991,0.647003 0.269989,1.099 1.23999,1.854 2.35602,1.854 1.67398,0 2.646,-1.368 2.646,-3.366 0,-1.746 -0.900024,-3.24 -2.574,-3.24 -1.08002,0 -2.10602,0.755997 -2.41202,1.944 -0.03598,0.216003 -0.089996,0.449997 -0.089996,0.647995 l .002,1.513 z "/>
<path id="path317" d="m 459.255,210.8913 h 1.58402 v 5.43701 h 0.03598 c 0.252014,-0.450012 0.647003,-0.863998 1.134,-1.11601 0.468018,-0.287994 1.02499,-0.449997 1.62,-0.449997 1.17001,0 3.04202,0.720001 3.04202,3.727 v 5.18401 h -1.58402 v -5.00401 c 0,-1.422 -0.522003,-2.59199 -2.01801,-2.59199 -1.02399,0 -1.81598,0.720001 -2.12299,1.584 -0.089996,0.216003 -0.106995,0.449005 -0.106995,0.755997 v 5.25601 h -1.58402 v -12.782 z "/>
<path id="path319" d="m 475.383,221.5843 c 0,0.755997 0.036011,1.494 0.126007,2.088 h -1.422 l -.145,-1.098 h -0.054993 c -0.468018,0.684006 -1.42203,1.29601 -2.664,1.29601 -1.76401,0 -2.664,-1.242 -2.664,-2.502 0,-2.106 1.87198,-3.259 5.23798,-3.24 v -0.179993 c 0,-0.720993 -0.197998,-2.034 -1.97998,-2.017 -0.828003,0 -1.67401,0.233994 -2.285,0.647995 l -.359,-1.063 c 0.720001,-0.449997 1.78101,-0.755997 2.88,-0.755997 2.68201,0 3.32999,1.81801 3.32999,3.564 v 3.26001 z  m -1.549,-2.359 c -1.728,-0.035995 -3.68899,0.271011 -3.68899,1.96201 0,1.04401 0.68399,1.513 1.47699,1.513 1.151,0 1.89099,-0.720993 2.14301,-1.45799 0.053986,-0.162003 0.070984,-0.343002 0.070984,-0.504013 l -.002,-1.513 z "/>
<path id="path321" d="m 485.373,222.3933 c 0,2.01701 -0.412994,3.22301 -1.241,3.996 -0.864014,0.774002 -2.08801,1.04401 -3.18802,1.04401 -1.04398,0 -2.19598,-0.251999 -2.896,-0.720001 l .396,-1.224 c 0.576019,0.378006 1.47702,0.701004 2.55701,0.701004 1.62,0 2.80899,-0.846008 2.80899,-3.06 v -0.95401 h -0.03598 c -0.468018,0.811005 -1.422,1.45801 -2.772,1.45801 -2.159,0 -3.70599,-1.836 -3.70599,-4.26601 0,-2.952 1.926,-4.608 3.94,-4.608 1.51199,0 2.32199,0.774002 2.71899,1.494 h 0.035004 l .056,-1.296 h 1.40198 c -0.053986,0.612 -0.070984,1.313 -0.070984,2.37601 v 5.05899 h -0.003998 z  m -1.584,-4.013 c 0,-0.252014 -0.018982,-0.486008 -0.089996,-0.702011 -0.289001,-0.935989 -1.04498,-1.692 -2.215,-1.692 -1.51199,0 -2.59201,1.278 -2.59201,3.313 0,1.692 0.882019,3.132 2.574,3.132 0.989014,0 1.871,-0.612 2.194,-1.638 0.091003,-0.251999 0.127014,-0.559006 0.127014,-0.846008 l .002,-1.567 z "/>
<path id="path323" d="m 495.272,221.2963 c 0,0.900009 0.019012,1.692 0.072021,2.37601 h -1.40402 l -.09,-1.422 h -0.036011 c -0.395996,0.701996 -1.33197,1.61999 -2.87997,1.61999 -1.36801,0 -3.00702,-0.774002 -3.00702,-3.81599 v -5.09401 h 1.58502 v 4.806 c 0,1.65601 0.520996,2.79001 1.94299,2.79001 1.06299,0 1.79999,-0.738007 2.08899,-1.45801 0.089996,-0.215988 0.144012,-0.503998 0.144012,-0.809998 v -5.328 h 1.58398 v 6.336 z "/>
<path id="path325" d="m 497.684,222.0703 c 0.484985,0.287003 1.31299,0.611008 2.10498,0.611008 1.134,0 1.67502,-0.557999 1.67502,-1.29601 0,-0.755997 -0.450012,-1.17 -1.604,-1.60199 -1.58402,-0.576004 -2.32101,-1.42201 -2.32101,-2.46701 0,-1.403 1.151,-2.556 3.00702,-2.556 0.880981,0 1.655,0.234009 2.12299,0.540009 l -.377,1.134 c -0.343018,-0.196991 -0.973999,-0.503998 -1.78302,-0.503998 -0.936981,0 -1.43899,0.540009 -1.43899,1.188 0,0.737 0.503998,1.062 1.64002,1.494 1.49298,0.557999 2.284,1.313 2.284,2.62799 0,1.548 -1.20502,2.62801 -3.23901,2.62801 -0.953003,0 -1.836,-0.251999 -2.44699,-0.612 l .376,-1.186 z "/>
</g>
<g style="fill:#020100" id="g327">
<path id="path329" d="m 115.488,214.1665 h -3.69001 v -1.332 h 8.98102 v 1.332 h -3.707 v 10.8 h -1.58401 v -10.8 z "/>
<path id="path331" d="m 124.469,225.1655 c -2.33999,0 -4.17599,-1.729 -4.17599,-4.482 0,-2.91602 1.92599,-4.62601 4.319,-4.62601 2.50198,0 4.194,1.81799 4.194,4.46402 0,3.23999 -2.25,4.64499 -4.319,4.64499 l -.018,-.001 z  m .054,-1.189 c 1.51401,0 2.646,-1.422 2.646,-3.401 0,-1.47699 -0.737984,-3.32999 -2.60899,-3.32999 -1.854,0 -2.66399,1.728 -2.66399,3.384 0,1.90799 1.07998,3.34798 2.60896,3.34798 l .018,-.001 z "/>
<path id="path333" d="m 130.805,218.6125 c 0,-0.917984 -0.019012,-1.638 -0.071014,-2.357 h 1.40302 l .09,1.422 h 0.036011 c 0.432983,-0.810013 1.439,-1.62001 2.87997,-1.62001 1.20602,0 3.078,0.720016 3.078,3.70801 v 5.202 h -1.58398 v -5.022 c 0,-1.40299 -0.520996,-2.59198 -2.017,-2.59198 -1.02502,0 -1.836,0.737976 -2.12302,1.61999 -0.071991,0.197998 -0.108002,0.485992 -0.108002,0.737991 v 5.256 h -1.58398 v -6.35501 z "/>
<path id="path335" d="m 148.247,223.6875 c 0,2.017 -0.414001,3.22299 -1.242,3.996 -0.862976,0.773987 -2.08798,1.04399 -3.18597,1.04399 -1.04602,0 -2.19601,-0.251999 -2.89801,-0.719986 l .396,-1.224 c 0.575989,0.377991 1.47699,0.700989 2.55701,0.700989 1.61999,0 2.80798,-0.846008 2.80798,-3.06 v -0.953995 h -0.035004 c -0.468994,0.811005 -1.422,1.45801 -2.771,1.45801 -2.16,0 -3.70798,-1.83601 -3.70798,-4.26601 0,-2.95201 1.926,-4.608 3.93997,-4.608 1.51401,0 2.32202,0.773987 2.72,1.494 h 0.035004 l .055,-1.296 h 1.40399 c -0.056,0.612015 -0.071991,1.31302 -0.071991,2.37602 l -.003,5.059 z  m -1.584,-4.012 c 0,-0.251999 -0.019012,-0.486008 -0.089996,-0.701996 -0.288025,-0.936005 -1.04501,-1.692 -2.216,-1.692 -1.51202,0 -2.59201,1.27799 -2.59201,3.313 0,1.69199 0.882996,3.13199 2.574,3.13199 0.98999,0 1.87201,-0.612 2.19598,-1.638 0.090027,-0.251999 0.126007,-0.55899 0.126007,-0.846008 l .002,-1.567 z "/>
<path id="path337" d="m 158.147,222.5915 c 0,0.900024 0.02002,1.69202 0.072021,2.37601 h -1.40402 l -.09,-1.422 h -0.03598 c -0.395996,0.701996 -1.332,1.61999 -2.88001,1.61999 -1.36801,0 -3.00702,-0.773987 -3.00702,-3.81601 v -5.09399 h 1.58502 v 4.806 c 0,1.65601 0.522003,2.79001 1.944,2.79001 1.06198,0 1.79898,-0.738007 2.08798,-1.45801 0.089996,-0.215988 0.144012,-0.503998 0.144012,-0.809998 v -5.328 h 1.58398 v 6.336 z "/>
<path id="path339" d="m 161.675,220.8815 c 0.035004,2.142 1.38599,3.023 2.97,3.023 1.13501,0 1.836,-0.197021 2.41199,-0.432007 l .288,1.116 c -0.55899,0.252014 -1.53,0.558014 -2.91599,0.558014 -2.664,0 -4.284,-1.78101 -4.284,-4.392 0,-2.64603 1.565,-4.71602 4.104,-4.71602 2.84399,0 3.582,2.502 3.582,4.10399 0,0.324005 -0.02002,0.576019 -0.056,0.756027 l -6.1,-.017 z  m 4.625,-1.134 c 0.019989,-0.98999 -0.412994,-2.57399 -2.17801,-2.57399 -1.61899,0 -2.30499,1.476 -2.431,2.57399 h 4.60901 z "/>
</g>
<g style="fill:#2e3192" id="g349">
<path id="path351" d="m 120.009,168.108 c -3.222,0 -5.453,-2.48401 -5.453,-6.15601 0,-3.853 2.376,-6.37199 5.615,-6.37199 3.33,0 5.473,2.53799 5.473,6.138 0,4.15801 -2.53799,6.39099 -5.616,6.39099 l -.019,-.001 z  m .072,-1.278 c 2.484,0 3.889,-2.286 3.889,-5.04001 0,-2.41199 -1.261,-4.93199 -3.87,-4.93199 -2.61,0 -3.906,2.42999 -3.906,5.058 0,2.556 1.404,4.914 3.87,4.914 h 0.016998 z "/>
<path id="path353" d="m 127.641,161.916 c 0,-1.026 -0.018997,-1.90801 -0.071999,-2.718 h 1.386 l .072,1.71 h 0.054001 c 0.396011,-1.17 1.36801,-1.90801 2.431,-1.90801 0.161011,0 0.287003,0.018997 0.432007,0.054001 v 1.477 c -0.179993,-0.020004 -0.341995,-0.036011 -0.559006,-0.036011 -1.11499,0 -1.907,0.846008 -2.123,2.01601 -0.035995,0.233994 -0.054993,0.485992 -0.054993,0.755997 v 4.645 h -1.584 l .018,-5.996 z "/>
<path id="path355" d="m 139.539,165.822 c 0,0.755997 0.035995,1.49399 0.125992,2.088 h -1.422 l -.144,-1.098 h -0.054993 c -0.468002,0.684006 -1.42201,1.29601 -2.664,1.29601 -1.76401,0 -2.664,-1.242 -2.664,-2.502 0,-2.106 1.87199,-3.259 5.23799,-3.24 v -0.179993 c 0,-0.721008 -0.197998,-2.03401 -1.97899,-2.017 -0.828003,0 -1.675,0.233994 -2.28601,0.647995 l -.36,-1.063 c 0.720001,-0.449997 1.782,-0.755997 2.88001,-0.755997 2.683,0 3.33,1.81799 3.33,3.564 v 3.26001 z  m -1.549,-2.358 c -1.72801,-0.036011 -3.69,0.270996 -3.69,1.96199 0,1.04401 0.684998,1.513 1.47699,1.513 1.15201,0 1.89002,-0.720993 2.14201,-1.45799 0.054993,-0.162003 0.071991,-0.343002 0.071991,-0.503998 v -1.513 h -0.000992 z "/>
<path id="path357" d="m 142.077,155.13 h 1.584 v 12.78 h -1.584 v -12.78 z "/>
<path id="path359" d="m 156.314,167.604 c -0.414001,0.196991 -1.332,0.503998 -2.502,0.503998 -2.62799,0 -4.338,-1.782 -4.338,-4.464 0,-2.683 1.836,-4.645 4.68001,-4.645 0.935989,0 1.76399,0.234009 2.196,0.468002 l -.36,1.206 c -0.378006,-0.197006 -0.972,-0.414001 -1.836,-0.414001 -1.998,0 -3.078,1.494 -3.078,3.313 0,2.01599 1.29599,3.258 3.024,3.258 0.898987,0 1.49399,-0.216003 1.94299,-0.414001 l .271,1.188 z "/>
<path id="path361" d="m 164.324,165.822 c 0,0.755997 0.035995,1.49399 0.125992,2.088 h -1.422 l -.145,-1.098 h -0.054001 c -0.468002,0.684006 -1.422,1.29601 -2.664,1.29601 -1.76399,0 -2.66399,-1.242 -2.66399,-2.502 0,-2.106 1.87199,-3.259 5.23799,-3.24 v -0.179993 c 0,-0.721008 -0.197998,-2.03401 -1.98,-2.017 -0.826996,0 -1.674,0.233994 -2.285,0.647995 l -.36,-1.063 c 0.720001,-0.449997 1.782,-0.755997 2.88001,-0.755997 2.68199,0 3.33,1.81799 3.33,3.564 v 3.26001 z  m -1.548,-2.358 c -1.729,-0.036011 -3.69,0.270996 -3.69,1.96199 0,1.04401 0.684998,1.513 1.477,1.513 1.151,0 1.89,-0.720993 2.142,-1.45799 0.054001,-0.162003 0.071991,-0.343002 0.071991,-0.503998 v -1.513 h -0.000992 z "/>
<path id="path363" d="m 167.24,159.198 l 1.71,4.878 c 0.28801,0.809998 0.522003,1.53 0.701996,2.25 h 0.054001 c 0.198013,-0.720001 0.450012,-1.44 0.738007,-2.25 l 1.692,-4.878 h 1.655 l -3.42,8.712 h -1.51201 l -3.313,-8.712 h 1.694 z "/>
<path id="path365" d="m 176.042,157.595 c -0.594009,0 -0.989014,-0.468002 -0.989014,-1.02499 0,-0.559006 0.41301,-1.00801 1.02501,-1.00801 0.612,0 1.008,0.449005 1.008,1.00801 0,0.557999 -0.395996,1.02499 -1.02499,1.02499 h -0.018997 z  m -.756,10.315 v -8.71201 h 1.584 v 8.71201 h -1.584 z "/>
<path id="path367" d="m 181.406,157.11 v 2.088 h 2.26799 v 1.20601 h -2.26799 v 4.698 c 0,1.08 0.306,1.69099 1.18799,1.69099 0.432007,0 0.684006,-0.035995 0.917999,-0.106995 l .071,1.206 c -0.306,0.106995 -0.791992,0.216003 -1.403,0.216003 -0.737991,0 -1.33199,-0.251999 -1.70999,-0.666 -0.432999,-0.486008 -0.612,-1.26 -0.612,-2.286 v -4.752 h -1.351 v -1.20601 h 1.351 v -1.604 l 1.548,-.484 z "/>
<path id="path369" d="m 186.194,159.198 l 1.89,5.146 c 0.216003,0.576004 0.432999,1.261 0.576004,1.78201 h 0.035995 c 0.162003,-0.521011 0.341995,-1.188 0.557999,-1.817 l 1.729,-5.112 h 1.674 l -2.376,6.21 c -1.134,2.98801 -1.90801,4.518 -2.98801,5.472 -0.791992,0.666 -1.548,0.936996 -1.94299,1.009 l -.396,-1.332 c 0.396011,-0.108002 0.917999,-0.360001 1.386,-0.774002 0.432999,-0.341995 0.95401,-0.953995 1.332,-1.76399 0.072006,-0.162003 0.126007,-0.271011 0.126007,-0.378006 0,-0.091003 -0.036011,-0.216995 -0.126007,-0.395996 l -3.204,-8.046 h 1.726 z "/>
</g>
<line style="fill:none;stroke:#000;stroke-width:1.025" id="line389" y1="219.21" x1="418.422" y2="320.598" x2="310.421"/>
<g style="fill:#020100" id="g403">
<path id="path405" d="m 35.327,473.071 c -0.702,0.270996 -2.105,0.665985 -3.744,0.665985 -1.836,0 -3.348,-0.468994 -4.536,-1.603 -1.044,-1.009 -1.691,-2.629 -1.691,-4.51901 0,-3.61798 2.502,-6.26398 6.569,-6.26398 1.404,0 2.521,0.306 3.042,0.557983 l -.396,1.278 c -0.647999,-0.307007 -1.458,-0.522003 -2.682,-0.522003 -2.952,0 -4.878,1.836 -4.878,4.87799 0,3.078 1.836,4.896 4.68,4.896 1.025,0 1.728,-0.145996 2.088,-0.324005 v -3.61798 h -2.448 v -1.26001 h 3.996 v 5.83402 z "/>
<path id="path407" d="m 43.931,471.523 c 0,0.755981 0.035,1.49298 0.125999,2.08798 h -1.423 l -.144,-1.099 h -0.054001 c -0.468002,0.684998 -1.422,1.29602 -2.664,1.29602 -1.765,0 -2.664,-1.24103 -2.664,-2.50201 0,-2.10501 1.872,-3.259 5.238,-3.23901 v -0.181 c 0,-0.720978 -0.198002,-2.034 -1.98,-2.017 -0.828003,0 -1.674,0.233002 -2.286,0.647003 l -.359,-1.063 c 0.720001,-0.450012 1.781,-0.756012 2.88,-0.756012 2.682,0 3.33,1.81702 3.33,3.56302 v 3.263 z  m -1.548,-2.358 c -1.728,-0.036011 -3.689,0.270996 -3.689,1.96201 0,1.04398 0.683998,1.513 1.476,1.513 1.152,0 1.891,-0.721008 2.143,-1.45801 0.054001,-0.162018 0.070999,-0.343018 0.070999,-0.503998 v -1.513 h -0.000999 z "/>
<path id="path409" d="m 46.469,460.831 h 1.584 v 12.78 h -1.584 v -12.78 z "/>
<path id="path411" d="m 50.681,460.831 h 1.584 v 12.78 h -1.584 v -12.78 z "/>
<path id="path413" d="m 54.893,460.831 h 1.584 v 5.45401 h 0.036003 c 0.557999,-0.972992 1.565,-1.58402 2.97,-1.58402 2.16,0 3.672,1.80002 3.672,4.42801 0,3.133 -1.98,4.681 -3.924,4.681 -1.26,0 -2.25,-0.484985 -2.916,-1.63901 h -0.036003 l -.09,1.44 h -1.368 c 0.054001,-0.595001 0.071999,-1.47699 0.071999,-2.25 v -10.53 z  m 1.584,9.288 c 0,0.197998 0.018005,0.396027 0.054001,0.576019 0.306,1.09799 1.242,1.854 2.376,1.854 1.674,0 2.646,-1.35001 2.646,-3.34802 0,-1.76398 -0.900002,-3.258 -2.593,-3.258 -1.08,0 -2.088,0.756012 -2.394,1.94299 -0.054001,0.197021 -0.090004,0.414001 -0.090004,0.666016 v 1.56699 h 0.000999 z "/>
<path id="path415" d="m 65.135,460.831 h 1.585 v 12.78 h -1.585 v -12.78 z "/>
<path id="path417" d="m 75.485,471.523 c 0,0.755981 0.036003,1.49298 0.125999,2.08798 h -1.422 l -.145,-1.099 h -0.054001 c -0.467995,0.684998 -1.422,1.29602 -2.664,1.29602 -1.764,0 -2.66399,-1.24103 -2.66399,-2.50201 0,-2.10501 1.87199,-3.259 5.238,-3.23901 v -0.181 c 0,-0.720978 -0.197998,-2.034 -1.98,-2.017 -0.827995,0 -1.674,0.233002 -2.28599,0.647003 l -.359,-1.063 c 0.720001,-0.450012 1.782,-0.756012 2.88,-0.756012 2.682,0 3.33,1.81702 3.33,3.56302 v 3.263 z  m -1.549,-2.358 c -1.729,-0.036011 -3.68999,0.270996 -3.68999,1.96201 0,1.04398 0.684998,1.513 1.477,1.513 1.151,0 1.89,-0.721008 2.142,-1.45801 0.054001,-0.162018 0.071999,-0.343018 0.071999,-0.503998 v -1.513 h -0.000999 z "/>
<path id="path419" d="m 85.546,460.831 v 10.53 c 0,0.77301 0.019005,1.655 0.071999,2.25 h -1.422 l -.072,-1.513 h -0.036003 c -0.485001,0.973022 -1.529,1.71002 -2.951,1.71002 -2.106,0 -3.744,-1.78101 -3.744,-4.42902 -0.018997,-2.91598 1.8,-4.67999 3.905,-4.67999 1.35101,0 2.25,0.630005 2.62801,1.31299 h 0.035995 v -5.185 h 1.584 v 0.003998 z  m -1.584,7.614 c 0,-0.21701 -0.017998,-0.468994 -0.070999,-0.684998 -0.234001,-0.989014 -1.099,-1.81702 -2.28599,-1.81702 -1.639,0 -2.61,1.43802 -2.61,3.34799 0,1.78201 0.881996,3.24002 2.574,3.24002 1.062,0 2.034,-0.721008 2.322,-1.89099 0.054001,-0.216003 0.070999,-0.433014 0.070999,-0.685028 v -1.50998 z "/>
<path id="path421" d="m 95.698,460.831 v 10.53 c 0,0.77301 0.018005,1.655 0.071999,2.25 h -1.422 l -.072,-1.513 h -0.036003 c -0.486,0.973022 -1.53,1.71002 -2.952,1.71002 -2.105,0 -3.744,-1.78101 -3.744,-4.42902 -0.017998,-2.91598 1.801,-4.67999 3.906,-4.67999 1.35001,0 2.25,0.630005 2.62801,1.31299 h 0.035995 v -5.185 h 1.584 v 0.003998 z  m -1.584,7.614 c 0,-0.21701 -0.017998,-0.468994 -0.071999,-0.684998 -0.233002,-0.989014 -1.098,-1.81702 -2.286,-1.81702 -1.638,0 -2.60899,1.43802 -2.60899,3.34799 0,1.78201 0.881996,3.24002 2.574,3.24002 1.062,0 2.033,-0.721008 2.321,-1.89099 0.055,-0.216003 0.071999,-0.433014 0.071999,-0.685028 v -1.50998 z "/>
<path id="path423" d="m 99.226,469.525 c 0.036003,2.142 1.386,3.022 2.97,3.022 1.134,0 1.836,-0.196991 2.412,-0.432007 l .288,1.116 c -0.559006,0.252014 -1.53001,0.558014 -2.916,0.558014 -2.664,0 -4.284,-1.78101 -4.284,-4.392 0,-2.646 1.566,-4.71701 4.104,-4.71701 2.84499,0 3.582,2.50201 3.582,4.104 0,0.324005 -0.018005,0.575989 -0.054001,0.756012 l -6.102,-.015 z  m 4.626,-1.134 c 0.018005,-0.988983 -0.413994,-2.573 -2.179,-2.573 -1.619,0 -2.30399,1.47601 -2.43,2.573 h 4.609 z "/>
<path id="path425" d="m 107.362,467.617 c 0,-1.026 -0.017998,-1.90799 -0.071999,-2.71899 h 1.386 l .072,1.711 h 0.055 c 0.395996,-1.17001 1.367,-1.90802 2.43,-1.90802 0.161995,0 0.288002,0.02002 0.431999,0.054016 v 1.478 c -0.18,-0.019989 -0.342003,-0.036011 -0.557999,-0.036011 -1.11601,0 -1.90801,0.846008 -2.124,2.01602 -0.036003,0.233978 -0.054001,0.485992 -0.054001,0.755981 v 4.646 h -1.584 l .017,-5.998 z "/>
</g>
<g style="fill:#020100" id="g427">
<path id="path429" d="m 467.5329,413.1661 c 0.703003,0.450012 1.711,0.792023 2.79098,0.792023 1.603,0 2.53702,-0.828003 2.53702,-2.069 0,-1.116 -0.645996,-1.78201 -2.285,-2.39502 -1.979,-0.720001 -3.20502,-1.76398 -3.20502,-3.45599 0,-1.88998 1.56601,-3.29401 3.92602,-3.29401 1.224,0 2.142,0.288025 2.66299,0.594025 l -.433,1.278 c -0.376984,-0.234009 -1.18799,-0.575989 -2.285,-0.575989 -1.65598,0 -2.28699,0.98999 -2.28699,1.81799 0,1.134 0.738007,1.69101 2.41199,2.34 2.05301,0.809998 3.078,1.78201 3.078,3.56299 0,1.87201 -1.367,3.51102 -4.229,3.51102 -1.16998,0 -2.448,-0.360992 -3.09799,-0.791992 l .415,-1.314 z "/>
<path id="path431" d="m 478.3889,404.2751 v 2.08801 h 2.26901 v 1.20599 h -2.26901 v 4.698 c 0,1.07999 0.306,1.69101 1.18802,1.69101 0.432983,0 0.684998,-0.036011 0.917999,-0.106995 l .071,1.206 c -0.306,0.106995 -0.791992,0.216003 -1.40299,0.216003 -0.737,0 -1.332,-0.252014 -1.711,-0.667023 -0.432007,-0.485992 -0.610016,-1.25998 -0.610016,-2.28598 v -4.75201 h -1.35098 v -1.20599 h 1.35098 v -1.603 l 1.547,-.484 z "/>
<path id="path433" d="m 485.8749,415.2732 c -2.34,0 -4.176,-1.729 -4.176,-4.483 0,-2.91602 1.926,-4.62601 4.32001,-4.62601 2.50201,0 4.19299,1.81799 4.19299,4.46399 0,3.24002 -2.25,4.64502 -4.319,4.64502 h -0.018005 z  m .056,-1.189 c 1.51202,0 2.64603,-1.422 2.64603,-3.40097 0,-1.47702 -0.738007,-3.33002 -2.60901,-3.33002 -1.854,0 -2.664,1.728 -2.664,3.384 0,1.90799 1.07999,3.34799 2.60901,3.34799 l .018,-.001 z "/>
<path id="path435" d="m 492.2109,408.7202 c 0,-0.917999 -0.034027,-1.638 -0.070007,-2.35699 h 1.38599 l .072,1.404 h 0.053986 c 0.485992,-0.828003 1.29599,-1.603 2.754,-1.603 1.17099,0 2.07001,0.720001 2.448,1.746 h 0.036011 c 0.270996,-0.503998 0.630005,-0.864014 0.988007,-1.134 0.521973,-0.395996 1.07999,-0.612 1.90799,-0.612 1.16998,0 2.88101,0.756012 2.88101,3.78 v 5.13 h -1.54901 v -4.93201 c 0,-1.69199 -0.628998,-2.68301 -1.89002,-2.68301 -0.917999,0 -1.604,0.666016 -1.88998,1.42203 -0.071991,0.233978 -0.127991,0.521973 -0.127991,0.791992 v 5.39999 h -1.54703 v -5.22 c 0,-1.40399 -0.610992,-2.39499 -1.81699,-2.39499 -0.973999,0 -1.70999,0.791992 -1.96301,1.58398 -0.090973,0.234009 -0.125,0.503998 -0.125,0.774017 v 5.25598 h -1.54999 l .002,-6.352 z "/>
<path id="path437" d="m 513.3619,412.9872 c 0,0.756012 0.036987,1.49399 0.126953,2.08801 h -1.422 l -.146,-1.098 h -0.054993 c -0.46701,0.684021 -1.42203,1.29602 -2.664,1.29602 -1.76401,0 -2.664,-1.24301 -2.664,-2.50201 0,-2.10599 1.87299,-3.259 5.23798,-3.23999 v -0.179993 c 0,-0.721008 -0.196991,-2.03403 -1.97897,-2.01703 -0.828003,0 -1.67602,0.234009 -2.28601,0.64801 l -.359,-1.063 c 0.718994,-0.450012 1.78101,-0.756012 2.879,-0.756012 2.68402,0 3.33002,1.81799 3.33002,3.56399 v 3.26001 h 0.001038 z  m -1.548,-2.359 c -1.729,-0.03598 -3.69,0.270996 -3.69,1.96201 0,1.04401 0.686005,1.513 1.478,1.513 1.151,0 1.89099,-0.721008 2.14301,-1.45801 0.054993,-0.161987 0.070984,-0.342987 0.070984,-0.503998 l -.002,-1.513 z "/>
<path id="path439" d="m 522.1099,414.7692 c -0.414001,0.196991 -1.33203,0.503998 -2.50201,0.503998 -2.62799,0 -4.33801,-1.78302 -4.33801,-4.46402 0,-2.68298 1.836,-4.64499 4.67999,-4.64499 0.937012,0 1.76501,0.234009 2.19605,0.467987 l -.36,1.206 c -0.376953,-0.197021 -0.971985,-0.414001 -1.836,-0.414001 -1.99799,0 -3.078,1.49399 -3.078,3.31299 0,2.01599 1.297,3.258 3.02405,3.258 0.897949,0 1.49396,-0.216003 1.94397,-0.414001 l .27,1.188 z "/>
<path id="path441" d="m 523.9629,402.2942 h 1.58404 v 5.43698 h 0.036987 c 0.252014,-0.449982 0.646973,-0.863983 1.13397,-1.116 0.468994,-0.287994 1.026,-0.449982 1.62,-0.449982 1.17102,0 3.04102,0.720001 3.04102,3.72699 v 5.18399 h -1.58398 v -5.004 c 0,-1.422 -0.520996,-2.59198 -2.01599,-2.59198 -1.02502,0 -1.81799,0.720001 -2.12402,1.58398 -0.090027,0.216003 -0.107971,0.449005 -0.107971,0.756012 v 5.25598 h -1.58404 v -12.782 z "/>
</g>
<g style="fill:#020100" id="g583">
<path id="path585" d="m 62.833,764.385 l -1.26,3.816 h -1.62 l 4.122,-12.132 h 1.89 l 4.141,12.132 h -1.674 l -1.297,-3.816 h -4.302 z  m 3.978,-1.224 l -1.206,-3.492 c -0.252007,-0.791992 -0.433006,-1.51202 -0.612007,-2.21399 h -0.053993 c -0.162003,0.701965 -0.360001,1.45801 -0.594002,2.19598 l -1.188,3.51 h 3.654 z "/>
<path id="path587" d="m 71.779,762.333 c 0,-1.11603 -0.017998,-2.01599 -0.071999,-2.84399 h 1.422 l .091,1.494 h 0.034996 c 0.630005,-1.07996 1.675,-1.69196 3.078,-1.69196 2.124,0 3.708,1.78198 3.708,4.42798 0,3.133 -1.926,4.68201 -3.96,4.68201 -1.17,0 -2.16,-0.504028 -2.682,-1.36798 h -0.036003 v 4.73297 h -1.584 v -9.43298 z  m 1.584,2.322 c 0,0.215942 0.017998,0.449951 0.071999,0.645996 0.270004,1.09998 1.242,1.854 2.357,1.854 1.674,0 2.646,-1.36804 2.646,-3.36603 0,-1.74597 -0.900002,-3.23999 -2.574,-3.23999 -1.08,0 -2.106,0.755981 -2.412,1.94397 -0.036003,0.216003 -0.090004,0.450012 -0.090004,0.647034 v 1.51501 h 0.000999 z "/>
<path id="path589" d="m 82.021,762.333 c 0,-1.11603 -0.019005,-2.01599 -0.072006,-2.84399 h 1.422 l .09,1.494 h 0.036003 c 0.629997,-1.07996 1.674,-1.69196 3.078,-1.69196 2.124,0 3.708,1.78198 3.708,4.42798 0,3.133 -1.926,4.68201 -3.96,4.68201 -1.17,0 -2.16,-0.504028 -2.682,-1.36798 h -0.035995 v 4.73297 h -1.584 v -9.43298 z  m 1.584,2.322 c 0,0.215942 0.017998,0.449951 0.071999,0.645996 0.269997,1.09998 1.241,1.854 2.35699,1.854 1.674,0 2.646,-1.36804 2.646,-3.36603 0,-1.74597 -0.900002,-3.23999 -2.574,-3.23999 -1.08,0 -2.106,0.755981 -2.412,1.94397 -0.036003,0.216003 -0.090004,0.450012 -0.090004,0.647034 v 1.51501 h 0.001007 z "/>
<path id="path591" d="m 93.18,764.115 c 0.034996,2.14203 1.386,3.02203 2.97,3.02203 1.13399,0 1.836,-0.196045 2.412,-0.432007 l .288,1.116 c -0.558998,0.252014 -1.53,0.558044 -2.916,0.558044 -2.664,0 -4.284,-1.78101 -4.284,-4.39203 0,-2.646 1.56499,-4.71698 4.104,-4.71698 2.845,0 3.582,2.50299 3.582,4.104 0,0.323975 -0.017998,0.575989 -0.054001,0.755981 l -6.102,-.015 z  m 4.626,-1.134 c 0.017998,-0.98999 -0.414001,-2.57404 -2.179,-2.57404 -1.62,0 -2.304,1.47601 -2.43,2.57404 h 4.609 z "/>
<path id="path593" d="m 101.299,761.846 c 0,-0.91803 -0.018005,-1.638 -0.071007,-2.35602 h 1.403 l .091,1.422 h 0.035004 c 0.432999,-0.810974 1.43999,-1.62 2.881,-1.62 1.205,0 3.077,0.720032 3.077,3.70801 v 5.20203 h -1.584 v -5.02203 c 0,-1.40198 -0.520996,-2.59198 -2.016,-2.59198 -1.026,0 -1.836,0.737976 -2.124,1.62 -0.071999,0.197998 -0.107994,0.485962 -0.107994,0.737976 v 5.25604 h -1.584 v -6.35602 z "/>
<path id="path595" d="m 118.812,755.421 v 10.53 c 0,0.77301 0.018005,1.65601 0.071007,2.25 h -1.422 l -.071,-1.512 h -0.036003 c -0.486,0.971985 -1.53,1.70996 -2.952,1.70996 -2.106,0 -3.744,-1.78198 -3.744,-4.42999 -0.017998,-2.91602 1.8,-4.67999 3.90601,-4.67999 1.35,0 2.25,0.630005 2.628,1.31299 h 0.035995 v -5.185 h 1.584 v 0.004028 z  m -1.584,7.614 c 0,-0.216003 -0.018997,-0.467957 -0.071999,-0.684998 -0.234001,-0.988953 -1.098,-1.81696 -2.28599,-1.81696 -1.638,0 -2.61,1.43799 -2.61,3.34796 0,1.78204 0.882996,3.23999 2.574,3.23999 1.063,0 2.034,-0.719971 2.322,-1.88995 0.054001,-0.217041 0.071999,-0.434021 0.071999,-0.686035 v -1.51001 z "/>
<path id="path597" d="m 122.196,757.886 c -0.594002,0 -0.989998,-0.467957 -0.989998,-1.02399 0,-0.559998 0.414001,-1.008 1.02599,-1.008 0.611984,0 1.00801,0.447998 1.00801,1.008 0,0.557983 -0.396011,1.02399 -1.026,1.02399 h -0.018005 z  m -.756,10.315 v -8.71198 h 1.584 v 8.71198 h -1.584 z "/>
<path id="path599" d="m 126.39,759.489 l 1.241,1.854 c 0.324005,0.503967 0.595001,0.937988 0.883011,1.422 h 0.053986 c 0.28801,-0.504028 0.576004,-0.952026 0.882004,-1.422 l 1.206,-1.854 h 1.728 l -2.97,4.212 3.042,4.5 h -1.79999 l -1.278,-1.962 c -0.34201,-0.504028 -0.630005,-0.98999 -0.936005,-1.513 h -0.035995 c -0.28801,0.520996 -0.594009,0.989014 -0.917999,1.513 l -1.26,1.962 h -1.746 l 3.096,-4.446 -2.952,-4.266 h 1.76399 z "/>
</g>
<g style="fill:none;stroke:#000">
<g style="stroke-width:1.2">
<line style="marker-end:url(#se_marker_end_line727)" id="line727" y1="462.473259" x1="124.268458" y2="532.127748" x2="209.044524" transform="rotate(-15.757930755615234 166.65649414062477,497.3005065917968) "/>
<line id="line733" y1="754" x1="139" y2="762.445" x2="208.138" transform="rotate(-15.2468900680542 173.56900024414068,758.2225341796875) "/>
</g>
<line style="marker-end:url(#se_marker_end_svg_41);stroke-width:2.201" id="svg_41" y1="559.881005" x1="228.473005" y2="645.339005" x2="117.975005" transform="rotate(-166.56179809570312 173.2239990234375,602.6099853515625) "/>
</g>
<text x="73.723999" y="650.109985" style="stroke-dasharray:null;font-family:Arial;text-anchor:middle;stroke-linejoin:null;stroke-linecap:null;stroke-width:0;font-size:21" id="svg_37" xml:space="preserve">Large Intestine</text>
<path style="fill:#58890b" id="path775" d="m0,0"/>
<g id="g3041" transform="matrix(1,0,0,0.7106000573824645,0,56.80900624097084) ">
<line style="fill:none;stroke:#000;stroke-width:.925" id="line347" y1="229.699" x1="173.637" y2="175.134" x2="256.882"/>
<ellipse cx="256.707" cy="175.309" rx="2" ry="1.558" id="circle787"/>
</g>
<circle cx="310.509" cy="320.445" id="circle793" r="2"/>
<circle cx="320.232" cy="549.602" id="circle797" r="2"/>
<path style="fill:none;stroke:#00adef;stroke-width:.6" id="path821" d="m 267.638,556.445 c -2.96399,-0.76001 -6.92499,2.64301 -8.84299,4.45398 -0.116028,0.242004 0.301971,-0.177979 0.342987,-0.203979"/>
<circle cx="261.181" cy="556.988" style="fill:#b21b0f" id="circle823" r="2"/>
<circle cx="349.762" cy="496.865" id="circle6982" r="2"/>
<line style="fill:none;stroke:#002dff;stroke-width:1.431" id="line14748" y1="227.445" x1="110.12" y2="150.137" x2="110.12"/>
<text x="521.723999" y="655.109985" style="stroke-dasharray:null;font-family:Arial;text-anchor:middle;stroke-linejoin:null;stroke-linecap:null;stroke-width:0;font-size:21" id="svg_39" xml:space="preserve">Small Intesine</text>
<g style="stroke:#000">
<line style="fill:none;marker-end:url(#se_marker_end_svg_40);stroke-width:2.201" id="svg_40" y1="608.881005" x1="431.473005" y2="694.339005" x2="320.975005" transform="rotate(35.739776611328125 376.2239990234372,651.6099853515626) "/>
<text x="91.723999" y="388.109985" style="stroke-dasharray:null;font-family:Arial;text-anchor:middle;stroke-linejoin:null;stroke-linecap:null;stroke-width:0;font-size:21" id="svg_42" xml:space="preserve">Liver</text>
<line style="fill:none;marker-end:url(#se_marker_end_svg_43);stroke-width:2.201" id="svg_43" y1="456.261877" x1="206.775786" y2="399.958201" x2="108.672216" transform="rotate(-166.56179809570312 157.7239990234375,428.11001586914057) "/>
</g>
</g>
</svg>
